<svg width="1095" height="480" version="1.1" xmlns="http://www.w3.org/2000/svg" desc="Created with imagetracer.js version 1.2.6" ><path fill="rgb(0,0,0)" stroke="rgb(0,0,0)" stroke-width="1" opacity="0" d="M 0 0 L 1095 0 L 1095 480 L 0 480 L 0 0 Z M 486 22 L 483 44 L 469 46 L 455 51 L 441 33 L 416 46 L 416 50 L 423 66 L 423 69 L 403 88 L 382 80 L 367 105 L 385 119 L 381 128 L 381 130 L 359 130 L 355 127 L 354 123 L 336 94 L 334 91 L 311 91 Q 307 85 300 84 L 291 87 L 286 94 Q 285 102 288 106 L 291 108 L 299 111 Q 307 110 311 104 L 327 104 L 351 143 L 377 143 L 377 147 L 357 149 L 356 150 L 354 151 L 354 161 L 293 161 L 285 155 Q 277 154 274 157 Q 269 160 268 166 Q 267 172 270 176 Q 273 180 279 181 Q 289 181 293 175 L 354 175 L 354 179 L 375 181 Q 378 184 377 190 L 354 190 L 333 204 L 297 204 L 289 198 Q 282 197 279 199 Q 273 201 272 208 Q 271 215 274 219 L 283 224 L 287 224 L 294 221 L 295 219 L 297 217 L 337 217 L 357 204 L 381 204 L 383 210 L 365 225 L 380 249 L 401 241 L 417 230 L 405 206 Q 404 203 408 204 L 413 217 L 428 238 L 435 252 L 439 267 L 440 285 L 441 287 L 447 291 L 455 291 L 456 292 L 547 292 L 552 290 L 556 284 L 556 271 L 558 261 L 563 247 L 569 236 L 581 220 L 589 204 L 591 205 L 577 232 L 593 243 L 616 252 L 630 228 L 612 214 L 617 204 L 641 204 L 661 217 L 701 217 Q 704 222 711 224 Q 718 225 721 221 L 725 215 L 724 205 L 717 198 L 709 198 L 701 204 L 665 204 L 644 190 L 621 190 L 620 185 L 642 183 Q 645 181 643 175 L 705 175 Q 707 180 714 181 Q 720 182 724 179 Q 728 176 729 171 Q 730 164 727 161 L 720 155 L 713 155 L 705 161 L 644 161 Q 642 161 643 155 L 642 153 L 621 151 L 620 147 L 621 143 L 647 143 L 670 104 L 687 104 Q 690 110 698 111 L 707 108 L 711 102 Q 712 93 709 90 L 700 84 Q 690 85 687 91 L 664 91 L 640 129 L 639 130 L 616 130 L 614 123 L 632 108 L 618 83 L 597 91 L 587 80 L 577 71 L 585 50 L 564 36 L 559 35 L 547 52 L 529 46 L 520 45 L 517 41 L 516 28 L 515 27 Q 515 22 515 22 L 486 22 Z M 72 269 L 70 270 L 64 277 L 47 334 L 48 335 L 68 335 L 77 299 L 79 297 L 97 333 L 103 336 L 115 335 L 121 327 L 137 296 L 144 327 L 147 334 L 148 335 L 167 335 L 166 328 L 150 275 L 144 269 Q 135 268 132 271 L 127 277 L 108 312 L 86 274 Q 83 267 72 269 Z M 220 269 L 215 272 L 170 335 L 195 335 L 225 293 L 241 317 L 241 318 L 215 318 L 203 334 L 204 335 L 278 335 L 277 332 L 238 276 Q 234 267 220 269 Z M 627 269 L 625 270 Q 620 273 619 280 L 619 335 L 638 335 L 639 298 L 672 328 L 683 336 Q 690 337 694 334 L 697 329 L 697 270 L 678 270 L 678 306 L 677 306 L 640 272 Q 636 268 627 269 Z M 716 269 L 714 270 Q 709 273 708 280 L 708 334 L 710 335 L 727 335 L 728 298 L 750 318 Q 752 317 751 320 L 772 336 Q 779 337 783 334 L 786 329 L 786 270 L 767 270 L 767 306 L 766 306 L 729 272 Q 725 268 716 269 Z M 830 269 L 814 273 L 807 277 Q 798 283 796 295 Q 793 315 802 324 L 814 332 L 832 336 L 856 336 Q 857 333 864 335 Q 874 333 881 328 L 887 322 L 890 316 L 892 306 L 891 293 L 887 284 Q 880 274 868 271 L 859 269 L 830 269 Z M 1022 269 L 1017 272 L 972 335 L 997 335 L 1027 293 L 1043 317 L 1043 318 L 1017 318 L 1005 334 L 1006 335 L 1080 335 L 1079 332 L 1040 276 Q 1036 267 1022 269 Z M 271 270 L 258 286 L 259 287 L 288 287 L 288 335 L 309 335 L 309 287 L 333 287 L 345 271 L 271 270 Z M 358 270 L 345 286 L 346 287 L 375 287 L 375 335 L 396 335 L 396 287 L 420 287 L 432 271 L 358 270 Z M 587 270 L 587 335 L 588 335 L 608 335 L 608 271 L 608 270 L 587 270 Z M 887 270 L 929 332 L 937 336 Q 946 337 951 333 L 955 329 L 996 271 L 972 270 L 942 312 L 913 272 L 913 270 L 887 270 Z M 457 294 L 455 295 L 451 300 L 452 308 L 458 311 L 539 311 L 543 309 L 545 305 L 544 298 L 539 294 L 457 294 Z M 471 313 L 469 314 L 464 320 L 465 327 L 470 330 L 527 330 L 529 329 L 532 324 L 531 318 L 526 313 L 471 313 Z M 475 332 Q 474 338 477 341 Q 482 348 492 351 Q 506 353 513 347 Q 518 343 521 336 L 521 332 L 475 332 Z M 139 363 L 134 368 L 134 380 L 135 382 L 139 384 L 168 384 L 169 386 L 169 388 L 134 388 L 134 396 L 136 397 L 174 397 L 176 396 L 179 391 Q 181 383 178 380 L 172 375 L 143 375 L 144 372 L 179 372 Q 180 372 179 366 L 177 363 L 139 363 Z M 259 363 L 255 365 Q 250 368 248 375 Q 246 385 250 391 L 259 397 L 286 397 L 291 394 L 295 388 L 295 373 L 292 368 L 286 363 L 259 363 Z M 367 363 L 365 365 L 365 396 L 367 397 L 404 397 L 405 396 L 405 389 L 405 388 L 374 388 L 374 364 L 374 363 L 367 363 Z M 476 363 L 475 366 L 475 391 L 476 393 L 482 397 L 514 397 L 518 395 L 521 389 L 521 367 L 519 363 L 512 363 L 511 364 L 511 387 L 509 388 L 487 388 L 485 387 L 485 363 L 476 363 Z M 591 363 L 590 366 L 590 372 L 608 372 L 608 396 L 610 397 L 618 397 L 618 372 L 636 372 L 636 366 L 635 365 L 635 363 L 591 363 Z M 706 363 L 706 396 L 708 397 L 717 397 L 717 397 L 717 365 L 716 363 L 706 363 Z M 798 363 L 794 365 Q 789 368 787 375 Q 785 385 789 391 L 798 397 L 825 397 L 830 394 L 834 388 L 834 373 L 831 368 L 825 363 L 798 363 Z M 907 363 L 905 365 L 905 396 L 907 397 L 914 397 L 915 375 L 940 397 L 949 397 L 950 395 L 950 366 L 949 365 L 949 363 L 940 363 L 940 385 L 915 363 L 907 363 Z M 168 420 L 166 421 L 162 426 Q 161 431 163 433 L 162 436 L 163 442 L 166 443 L 185 443 L 189 441 L 190 439 Q 192 432 189 431 L 190 429 Q 191 423 189 421 L 187 420 L 168 420 Z M 199 420 L 195 422 L 191 428 Q 190 436 193 440 L 199 443 Q 209 445 215 442 L 220 436 Q 221 429 219 426 L 213 420 L 199 420 Z M 225 420 L 222 421 L 221 424 L 221 440 L 222 442 L 225 443 L 244 443 L 246 442 L 247 440 L 246 435 L 246 433 L 231 433 L 231 423 Q 230 419 225 420 Z M 252 420 L 249 421 L 248 424 L 248 438 L 249 440 L 255 443 L 270 443 L 273 442 L 276 438 L 276 424 L 275 421 L 269 420 L 266 423 L 266 433 L 258 433 L 258 423 Q 257 419 252 420 Z M 285 420 L 281 422 L 277 428 Q 275 436 279 440 L 285 443 L 302 443 L 305 439 L 304 436 L 304 433 L 288 433 L 287 432 L 289 430 L 304 430 L 305 427 L 304 423 L 302 420 L 285 420 Z M 309 420 L 306 423 L 306 440 L 307 442 Q 309 444 315 443 L 317 441 L 317 423 Q 316 419 309 420 Z M 327 420 L 324 421 Q 319 424 318 430 Q 317 436 320 439 L 327 443 L 340 443 L 344 441 L 346 439 L 348 433 L 346 425 L 340 420 L 327 420 Z M 352 420 L 349 423 L 349 438 L 348 439 L 352 443 L 358 442 L 359 436 L 369 443 L 374 443 L 377 439 L 377 425 L 376 423 Q 375 419 369 420 L 366 427 L 357 420 L 352 420 Z M 383 420 L 380 421 L 379 424 L 379 440 L 380 442 L 383 443 L 402 443 L 404 442 L 405 436 L 402 433 Q 399 434 400 430 Q 404 431 405 428 L 404 421 L 402 420 L 383 420 Z M 412 420 L 409 421 L 406 425 L 406 433 L 407 434 Q 405 435 406 441 L 410 443 L 429 443 L 431 442 L 434 437 L 433 432 L 434 427 L 433 423 L 431 420 L 412 420 Z M 449 420 L 445 425 L 446 428 L 446 430 L 454 430 Q 453 438 455 442 L 458 443 L 463 442 L 464 442 L 464 430 L 473 430 L 474 427 L 473 423 L 471 420 L 449 420 Z M 478 420 L 475 421 L 475 441 L 478 443 Q 483 444 485 442 L 486 440 L 486 425 L 485 421 Q 483 419 478 420 Z M 506 420 L 503 421 Q 498 424 497 430 Q 496 436 499 439 L 506 443 L 526 443 L 528 441 L 528 436 L 526 434 L 525 425 L 519 420 L 506 420 Z M 533 420 L 530 421 L 529 424 L 529 438 L 530 440 L 536 443 L 551 443 L 554 442 L 557 438 L 557 424 L 556 421 L 550 420 L 547 423 L 547 433 L 539 433 L 539 423 Q 538 419 533 420 Z M 563 420 L 560 421 L 559 424 L 559 440 L 560 442 L 563 443 L 582 443 L 584 442 L 585 436 L 580 433 Q 578 429 583 430 L 585 427 L 584 421 L 582 420 L 563 420 Z M 600 420 L 597 421 L 596 424 Q 595 429 598 430 L 605 430 L 605 441 Q 607 444 613 443 L 615 441 L 615 430 L 623 430 L 624 429 Q 625 423 623 421 L 621 420 L 600 420 Z M 629 420 L 626 421 L 625 424 L 625 441 Q 626 444 633 443 L 635 440 L 639 438 L 640 441 L 644 443 Q 650 444 652 442 L 651 437 L 653 433 L 652 425 L 646 420 L 629 420 Z M 666 420 L 664 421 L 653 439 Q 652 442 656 443 Q 663 444 665 440 Q 674 438 677 443 Q 683 444 684 441 L 675 423 Q 673 419 666 420 Z M 688 420 L 685 423 L 685 441 L 688 443 L 694 442 L 695 436 L 705 443 L 710 443 L 713 439 L 713 425 L 712 423 Q 711 419 705 420 L 702 427 L 693 420 L 688 420 Z M 720 420 L 718 421 L 714 426 Q 713 431 715 433 L 714 436 L 715 442 L 718 443 L 737 443 L 741 441 L 742 439 Q 744 432 741 431 L 742 429 Q 743 423 741 421 L 739 420 L 720 420 Z M 748 420 L 745 421 L 744 424 L 744 440 L 745 442 L 752 443 Q 755 442 754 437 L 763 437 L 765 435 Q 763 428 769 430 L 770 428 Q 769 436 772 440 L 778 443 Q 788 445 794 442 L 799 435 L 798 426 L 791 420 L 778 420 L 774 422 L 771 427 L 769 421 L 767 420 L 748 420 Z M 804 420 L 801 421 L 800 424 L 800 441 Q 801 444 808 443 L 810 439 L 814 438 L 815 441 L 819 443 Q 825 444 827 442 L 826 437 L 828 433 L 827 425 L 821 420 L 804 420 Z M 832 420 L 829 423 L 829 440 L 830 442 L 833 443 Q 838 444 840 441 Q 841 444 848 442 Q 849 440 851 443 Q 857 444 858 441 L 858 423 L 856 420 Q 850 419 848 421 L 844 429 L 840 423 Q 839 419 832 420 Z M 871 420 L 860 436 L 859 442 L 862 443 Q 866 444 868 442 Q 870 443 869 440 L 879 440 L 879 442 L 882 443 Q 887 444 889 442 L 889 438 L 881 424 Q 879 418 871 420 Z M 894 420 L 891 421 L 890 424 L 890 440 L 891 442 L 898 443 Q 901 441 901 435 L 910 443 Q 915 444 917 442 L 918 440 L 918 424 L 917 421 L 911 420 Q 907 422 908 428 L 899 420 L 894 420 Z " /><path fill="rgb(0,0,0)" stroke="rgb(0,0,0)" stroke-width="1" opacity="0" d="M 485.5 72 L 510.5 72 L 533.5 78 Q 554.5 86.5 569 101.5 Q 580.7 113.3 588 129.5 L 585.5 130 Q 576.7 111.8 562.5 99 Q 543.3 80.7 511.5 75 L 509.5 76 L 501.5 74 L 492.5 74 L 491.5 75 L 483.5 75 L 473.5 77 L 449.5 87 Q 434.6 95.6 424 108.5 Q 415.6 117.9 411 130 Q 407.3 131.5 408 128.5 Q 417.7 108.7 433.5 95 Q 444.7 85.3 459.5 79 L 470.5 75 L 485.5 72 Z " /><path fill="rgb(0,0,0)" stroke="rgb(0,0,0)" stroke-width="1" opacity="0" d="M 488.5 88 L 506.5 88 L 527.5 93 Q 546.3 100.7 559 114.5 Q 568.8 125.2 575 139.5 L 580 157.5 L 581 173.5 L 580 174.5 L 579 188.5 L 574 203.5 L 569 213.5 L 554 234.5 L 548 247.5 Q 542.8 261.1 542 278 L 454.5 278 L 453 276.5 L 452 262.5 L 445 240.5 L 427 213.5 L 420 199.5 L 416 184.5 L 415 165.5 L 416 164.5 L 416 156.5 L 418 147.5 L 424 132.5 Q 432 117.5 444.5 107 Q 453.5 99 465.5 94 L 473.5 91 L 488.5 88 Z M 518 123 L 508 131 L 506 132 L 506 146 L 510 145 L 518 138 L 518 123 Z M 557 126 L 530 144 L 528 146 L 528 171 L 528 173 L 529 174 L 530 185 L 545 177 L 548 178 L 548 191 L 531 203 L 529 204 L 529 210 L 533 211 L 555 201 L 557 199 L 557 159 L 556 157 L 539 166 Q 537 162 538 153 Q 545 146 555 142 L 558 138 L 557 126 Z M 494 141 L 466 163 L 450 152 L 440 156 Q 436 155 437 158 L 466 178 L 495 156 L 495 142 L 494 141 Z M 517 151 L 506 160 L 506 210 L 508 211 L 517 211 L 518 210 L 518 152 L 517 151 Z M 494 169 L 483 178 L 483 210 L 485 211 L 486 210 L 495 210 L 495 170 L 494 169 Z M 438 170 L 437 210 L 439 211 L 448 211 L 449 210 L 449 179 L 438 170 Z M 471 186 L 466 190 L 460 187 L 460 210 L 462 211 Q 469 212 472 210 L 472 187 L 471 186 Z " /><path fill="rgb(0,0,0)" stroke="rgb(0,0,0)" stroke-width="1" opacity="0" d="M 402 144 Q 406.5 142.3 405 147.5 L 402 161 Q 398.3 162.5 399 159.5 L 402 144 Z " /><path fill="rgb(0,0,0)" stroke="rgb(0,0,0)" stroke-width="1" opacity="0" d="M 591 144 L 594 145.5 L 596 161 L 592 159.5 L 591 144 Z " /><path fill="rgb(0,0,0)" stroke="rgb(0,0,0)" stroke-width="1" opacity="0" d="M 399 175 L 402 175 L 402 182.5 L 404 189.5 L 401.5 190 L 400 188.5 L 399 175 Z " /><path fill="rgb(0,0,0)" stroke="rgb(0,0,0)" stroke-width="1" opacity="0" d="M 594 175 Q 598.5 173.3 597 178.5 L 595 190 Q 591.3 191.5 592 188.5 L 593 187.5 L 594 175 Z " /><path fill="rgb(0,0,0)" stroke="rgb(0,0,0)" stroke-width="1" opacity="0" d="M 836.5 286 L 858.5 287 Q 865.9 288.1 869 293.5 Q 872 297.5 871 305.5 Q 869.9 312.9 864.5 316 L 850.5 319 L 836.5 319 L 825.5 317 L 818 311.5 Q 815.5 306 817 296.5 L 822.5 289 L 836.5 286 Z " /><path fill="rgb(0,0,0)" stroke="rgb(0,0,0)" stroke-width="1" opacity="0" d="M 262.5 372 L 281.5 372 L 285 374.5 L 286 383.5 L 283.5 387 L 281.5 388 L 262.5 388 L 258 384.5 L 258 375.5 L 260.5 373 L 262.5 372 Z " /><path fill="rgb(0,0,0)" stroke="rgb(0,0,0)" stroke-width="1" opacity="0" d="M 801.5 372 L 820.5 372 L 824 374.5 L 825 383.5 L 822.5 387 L 820.5 388 L 801.5 388 L 797 384.5 L 797 375.5 L 799.5 373 L 801.5 372 Z " /><path fill="rgb(0,0,0)" stroke="rgb(0,0,0)" stroke-width="1" opacity="0" d="M 201 430 L 207.5 430 L 208.5 431 L 210 430.5 L 209.5 433 L 201 433 L 201 430 Z " /><path fill="rgb(0,0,0)" stroke="rgb(0,0,0)" stroke-width="1" opacity="0" d="M 329 430 L 337 430 L 337 433 L 329 433 L 329 430 Z " /><path fill="rgb(0,0,0)" stroke="rgb(0,0,0)" stroke-width="1" opacity="0" d="M 508 430 L 516 430 L 516 433 L 508 433 L 508 430 Z " /><path fill="rgb(0,0,0)" stroke="rgb(0,0,0)" stroke-width="1" opacity="0" d="M 780 430 L 789 430 L 789 433 L 780 433 L 780 430 Z " /><path fill="rgb(4,5,6)" stroke="rgb(4,5,6)" stroke-width="1" opacity="0.9686274509803922" d="M 492.5 74 L 501.5 74 L 510.5 76 L 512.5 75 L 528.5 79 L 540.5 84 Q 557.8 92.8 570 106.5 L 585.5 130 L 638.5 130 L 640 128.5 L 663.5 91 L 686.5 91 Q 690 84.5 699.5 84 L 709 89.5 Q 712.3 93.2 711 101.5 L 706.5 108 L 697.5 111 Q 689.8 109.8 686.5 104 L 670 104 L 646.5 143 L 620.5 143 L 618.5 144 L 617.5 143 L 605.5 143 L 604.5 144 L 591 144 L 592 159.5 L 593.5 161 L 704.5 161 L 712.5 155 L 719.5 155 L 727 160.5 Q 729.7 163.8 729 170.5 Q 727.8 176.3 723.5 179 Q 720.2 181.7 713.5 181 Q 707.4 179.6 704.5 175 L 594 175 L 593 187.5 L 592 190 L 643.5 190 L 664.5 204 L 700.5 204 L 708.5 198 L 716.5 198 L 724 204.5 L 725 214.5 L 720.5 221 Q 717.7 224.7 710.5 224 Q 703.7 222.3 700.5 217 L 660.5 217 L 640.5 204 L 588.5 204 L 581 219.5 L 569 235.5 L 563 246.5 L 558 260.5 L 556 270.5 L 556 283.5 L 551.5 290 L 546.5 292 L 455.5 292 L 454.5 291 L 446.5 291 L 441 286.5 L 440 284.5 L 439 266.5 L 435 251.5 L 428 237.5 L 413 216.5 L 408 204 L 356.5 204 L 336.5 217 L 296.5 217 L 295 218.5 L 293.5 221 L 286.5 224 L 282.5 224 L 274 218.5 Q 270.8 215.2 272 207.5 Q 273.4 201.4 278.5 199 Q 281.7 196.7 288.5 198 L 296.5 204 L 332.5 204 L 353.5 190 L 404 189.5 L 402 182.5 L 402 175 L 292.5 175 Q 288.9 181.4 278.5 181 Q 272.8 179.8 270 175.5 Q 267.3 172.2 268 165.5 Q 269.3 159.8 273.5 157 Q 276.8 153.8 284.5 155 L 292.5 161 L 402 161 L 405 144 L 394.5 144 L 393.5 143 L 350.5 143 L 349 141.5 L 327 104 L 310.5 104 Q 307.1 110.1 298.5 111 L 290.5 108 L 288 105.5 Q 284.7 101.8 286 93.5 L 290.5 87 L 299.5 84 Q 307.3 85.2 310.5 91 L 333.5 91 L 336 93.5 L 354 122.5 L 355 126.5 L 358.5 130 L 410.5 130 L 411 128.5 Q 420.6 109.1 436.5 96 Q 447.5 87 461.5 81 L 473.5 77 L 483.5 75 L 491.5 75 L 492.5 74 Z M 491 77 L 474 80 L 460 85 L 438 99 Q 421 112 413 133 L 357 133 L 356 132 L 352 129 L 350 122 L 333 94 L 309 94 L 308 93 L 301 87 Q 295 86 293 89 L 290 92 L 288 98 L 290 104 L 298 108 Q 306 108 308 103 L 309 101 L 328 101 L 351 140 L 391 140 L 392 141 L 409 141 Q 405 151 405 164 L 291 164 L 290 163 L 285 158 L 276 159 L 271 165 L 272 174 L 278 178 Q 288 180 290 174 L 291 172 L 405 172 L 405 184 L 407 193 L 354 193 L 333 207 L 295 207 L 294 206 Q 291 201 286 200 L 281 201 L 275 208 L 276 217 L 283 221 Q 292 221 295 215 L 335 215 L 357 201 L 410 201 L 414 213 L 430 236 L 438 252 L 442 267 L 443 285 L 449 288 L 454 289 L 548 289 L 550 288 L 553 284 L 554 266 L 560 247 L 567 234 L 579 218 L 586 201 L 642 201 L 663 215 L 703 215 L 710 221 Q 716 222 719 219 L 722 215 L 721 206 L 717 201 L 713 200 L 707 202 L 703 207 L 665 207 L 644 193 L 589 193 L 591 182 L 591 172 L 707 172 L 707 174 L 713 178 L 722 177 L 726 172 L 725 163 L 720 158 L 711 159 L 707 164 L 592 164 L 589 163 L 589 150 L 587 141 L 633 141 L 634 140 L 646 140 L 670 101 L 689 101 L 689 103 L 697 108 L 705 106 L 707 104 L 709 98 L 707 92 L 700 87 Q 691 87 689 93 L 689 94 L 665 94 L 643 130 L 640 133 L 583 133 Q 578 119 568 109 Q 554 93 534 84 L 513 78 L 491 77 Z " /><path fill="rgb(4,5,6)" stroke="rgb(4,5,6)" stroke-width="1" opacity="0.9686274509803922" d="M 490.5 85 L 505.5 85 L 527.5 90 Q 546.9 97.6 560 111.5 Q 574.5 126 581 148.5 L 583 158.5 L 583 182.5 L 577 203.5 Q 570.2 219.7 559 231.5 L 551 247.5 L 546 265.5 L 545 281 L 451.5 281 Q 450.4 280.9 451 275.5 L 450 274.5 L 449 261.5 L 444 245.5 L 438 233.5 L 423 212.5 L 417 199.5 L 413 183.5 L 412 166.5 L 413 165.5 L 414 152.5 L 419 136.5 Q 427.4 117.4 442.5 105 L 465.5 91 L 482.5 86 Q 488.8 87.8 490.5 85 Z M 489 88 L 474 91 L 466 94 Q 454 99 445 107 Q 432 117 424 133 L 418 148 L 416 157 L 416 165 L 415 166 L 416 185 L 420 200 L 427 214 L 445 241 L 452 263 L 453 277 L 455 278 L 542 278 Q 543 261 548 248 L 554 235 L 569 214 L 574 204 L 579 189 L 580 175 L 581 174 L 580 158 L 575 140 Q 569 125 559 115 Q 546 101 528 93 L 507 88 L 489 88 Z " /><path fill="rgb(4,5,6)" stroke="rgb(4,5,6)" stroke-width="1" opacity="0.9686274509803922" d="M 288.5 333 L 289.5 335 Q 286.7 335.7 288.5 333 Z " /><path fill="rgb(4,5,6)" stroke="rgb(4,5,6)" stroke-width="1" opacity="0.9686274509803922" d="M 607.5 333 L 608 335 L 606 334.5 L 607.5 333 Z " /><path fill="rgb(4,5,6)" stroke="rgb(4,5,6)" stroke-width="1" opacity="0.9686274509803922" d="M 167.5 420 L 186.5 420 L 189 421 Q 190.6 423.1 190 428.5 L 189 430.5 Q 191.8 432.3 190 438.5 L 189 441 L 184.5 443 L 165.5 443 L 163 442 L 162 435.5 L 163 432.5 Q 160.5 431 162 425.5 L 165.5 421 L 167.5 420 Z M 168 423 Q 164 424 165 432 L 169 434 L 182 435 L 165 435 L 166 440 L 186 440 L 188 436 L 187 432 L 185 429 L 170 429 L 187 428 L 188 427 L 187 425 L 187 423 L 168 423 Z " /><path fill="rgb(4,5,6)" stroke="rgb(4,5,6)" stroke-width="1" opacity="0.9686274509803922" d="M 198.5 420 L 212.5 420 L 219 425.5 Q 221.3 428.7 220 435.5 L 214.5 442 Q 208.6 444.6 198.5 443 L 193 439.5 Q 189.7 435.8 191 427.5 L 194.5 422 L 198.5 420 Z M 199 423 L 197 424 L 193 430 L 194 437 L 199 440 L 213 440 L 216 438 L 217 436 Q 218 429 216 426 L 213 423 L 199 423 Z " /><path fill="rgb(4,5,6)" stroke="rgb(4,5,6)" stroke-width="1" opacity="0.9686274509803922" d="M 224.5 420 Q 230 419 231 422.5 L 231 433 L 245.5 433 L 246 434.5 L 247 439.5 L 246 442 L 243.5 443 L 224.5 443 L 222 442 L 221 439.5 L 221 423.5 L 222 421 L 224.5 420 Z M 224 423 L 224 440 L 244 440 L 244 435 L 229 435 L 229 423 L 224 423 Z " /><path fill="rgb(4,5,6)" stroke="rgb(4,5,6)" stroke-width="1" opacity="0.9686274509803922" d="M 251.5 420 Q 257 419 258 422.5 L 258 433 L 266 433 L 266 422.5 L 268.5 420 L 275 421 L 276 423.5 L 276 437.5 L 272.5 442 L 269.5 443 L 254.5 443 L 249 439.5 L 248 437.5 L 248 423.5 L 249 421 L 251.5 420 Z M 252 423 L 250 425 L 250 436 L 251 438 L 254 440 L 271 440 L 274 435 Q 275 427 273 423 L 268 423 L 268 435 L 256 435 L 256 423 L 252 423 Z " /><path fill="rgb(4,5,6)" stroke="rgb(4,5,6)" stroke-width="1" opacity="0.9686274509803922" d="M 284.5 420 L 301.5 420 L 304 422.5 L 305 426.5 L 304 430 L 288.5 430 L 287 431.5 L 287.5 433 L 303.5 433 L 304 435.5 L 305 438.5 L 301.5 443 L 284.5 443 L 279 439.5 Q 275.2 436.3 277 427.5 L 280.5 422 L 284.5 420 Z M 285 423 L 283 424 L 279 430 L 280 437 L 285 440 L 302 440 L 302 435 L 285 435 L 284 433 L 285 430 L 286 428 L 302 428 L 302 425 L 301 423 L 285 423 Z " /><path fill="rgb(4,5,6)" stroke="rgb(4,5,6)" stroke-width="1" opacity="0.9686274509803922" d="M 308.5 420 Q 315.5 418.5 317 422.5 L 317 440.5 L 314.5 443 Q 309.1 443.6 307 442 L 306 439.5 L 306 422.5 L 308.5 420 Z M 309 423 L 309 440 L 315 440 L 315 425 Q 314 422 309 423 Z " /><path fill="rgb(4,5,6)" stroke="rgb(4,5,6)" stroke-width="1" opacity="0.9686274509803922" d="M 326.5 420 L 339.5 420 L 346 424.5 L 348 432.5 L 346 438.5 L 343.5 441 L 339.5 443 L 326.5 443 L 320 438.5 Q 317.4 435.6 318 429.5 Q 319.3 423.8 323.5 421 L 326.5 420 Z M 326 423 Q 319 425 321 436 L 326 440 L 341 440 L 345 435 L 344 427 L 341 423 L 326 423 Z " /><path fill="rgb(4,5,6)" stroke="rgb(4,5,6)" stroke-width="1" opacity="0.9686274509803922" d="M 351.5 420 L 356.5 420 L 365.5 427 L 368.5 420 Q 374.8 418.8 376 422.5 L 377 424.5 L 377 438.5 L 373.5 443 L 368.5 443 L 359 436 L 358 442 L 351.5 443 L 348 438.5 L 349 437.5 L 349 422.5 L 351.5 420 Z M 353 423 L 351 425 L 351 439 Q 352 441 356 440 L 357 429 L 369 440 Q 373 441 374 439 L 374 425 L 373 423 L 369 423 L 369 433 L 357 423 L 353 423 Z " /><path fill="rgb(4,5,6)" stroke="rgb(4,5,6)" stroke-width="1" opacity="0.9686274509803922" d="M 382.5 420 L 401.5 420 L 404 421 L 405 427.5 Q 403.8 430.8 400 430 Q 398.5 433.7 401.5 433 L 405 435.5 L 404 442 L 401.5 443 L 382.5 443 L 380 442 L 379 439.5 L 379 423.5 L 380 421 L 382.5 420 Z M 382 423 L 382 440 L 402 440 L 402 436 L 387 436 L 388 434 L 397 434 L 398 431 L 397 429 L 387 429 L 401 428 L 402 427 L 402 423 L 382 423 Z " /><path fill="rgb(4,5,6)" stroke="rgb(4,5,6)" stroke-width="1" opacity="0.9686274509803922" d="M 411.5 420 L 430.5 420 L 433 422.5 L 434 426.5 L 433 431.5 L 434 436.5 L 430.5 442 L 428.5 443 L 409.5 443 L 406 440.5 Q 404.5 435 407 433.5 L 406 432.5 L 406 424.5 L 408.5 421 L 411.5 420 Z M 411 423 L 408 427 L 409 433 L 412 434 L 426 434 L 426 435 L 409 435 L 408 439 L 410 440 L 429 440 Q 433 439 431 432 L 429 429 L 414 429 L 414 428 L 431 428 L 431 425 L 430 423 L 411 423 Z " /><path fill="rgb(4,5,6)" stroke="rgb(4,5,6)" stroke-width="1" opacity="0.9686274509803922" d="M 448.5 420 L 470.5 420 L 473 422.5 L 474 426.5 L 473 430 L 464 430 L 464 441.5 L 462.5 442 L 457.5 443 L 455 442 Q 453.1 437.7 454 430 L 446 430 L 446 427.5 L 445 424.5 L 448.5 420 Z M 450 423 L 448 425 L 448 428 L 457 428 L 457 440 L 462 440 L 462 428 L 471 428 L 471 425 L 470 423 L 450 423 Z " /><path fill="rgb(4,5,6)" stroke="rgb(4,5,6)" stroke-width="1" opacity="0.9686274509803922" d="M 477.5 420 Q 482.9 419.4 485 421 L 486 424.5 L 486 439.5 L 485 442 Q 482.9 443.6 477.5 443 L 475 440.5 L 475 421 L 477.5 420 Z M 477 423 L 477 439 Q 478 441 483 440 L 483 423 L 477 423 Z " /><path fill="rgb(4,5,6)" stroke="rgb(4,5,6)" stroke-width="1" opacity="0.9686274509803922" d="M 505.5 420 L 518.5 420 L 525 424.5 L 526 433.5 L 528 435.5 L 528 440.5 L 525.5 443 L 505.5 443 L 499 438.5 Q 496.4 435.6 497 429.5 Q 498.3 423.8 502.5 421 L 505.5 420 Z M 505 423 L 500 429 Q 498 438 505 440 L 525 440 L 525 437 Q 521 435 524 434 L 523 427 L 520 423 L 505 423 Z " /><path fill="rgb(4,5,6)" stroke="rgb(4,5,6)" stroke-width="1" opacity="0.9686274509803922" d="M 532.5 420 Q 538 419 539 422.5 L 539 433 L 547 433 L 547 422.5 L 549.5 420 L 556 421 L 557 423.5 L 557 437.5 L 553.5 442 L 550.5 443 L 535.5 443 L 530 439.5 L 529 437.5 L 529 423.5 L 530 421 L 532.5 420 Z M 533 423 L 531 425 L 531 436 L 532 438 L 535 440 L 552 440 L 555 435 Q 556 427 554 423 L 549 423 L 549 435 L 537 435 L 537 423 L 533 423 Z " /><path fill="rgb(4,5,6)" stroke="rgb(4,5,6)" stroke-width="1" opacity="0.9686274509803922" d="M 562.5 420 L 581.5 420 L 584 421 L 585 426.5 L 582.5 430 Q 578.3 428.9 580 433 L 585 435.5 L 584 442 L 581.5 443 L 562.5 443 L 560 442 L 559 439.5 L 559 423.5 L 560 421 L 562.5 420 Z M 562 423 L 562 440 L 582 440 L 582 436 L 567 436 L 568 434 L 577 434 L 578 431 L 577 429 L 567 429 L 581 428 L 582 427 L 582 423 L 562 423 Z " /><path fill="rgb(4,5,6)" stroke="rgb(4,5,6)" stroke-width="1" opacity="0.9686274509803922" d="M 599.5 420 L 620.5 420 L 623 421 Q 624.6 423.1 624 428.5 L 622.5 430 L 615 430 L 615 440.5 L 612.5 443 Q 606.7 443.8 605 440.5 L 605 430 L 597.5 430 Q 594.8 428.8 596 423.5 L 597 421 L 599.5 420 Z M 599 423 L 598 427 L 600 428 L 607 428 L 607 439 L 609 440 L 612 440 L 612 428 L 621 428 L 622 427 L 621 425 L 621 423 L 599 423 Z " /><path fill="rgb(4,5,6)" stroke="rgb(4,5,6)" stroke-width="1" opacity="0.9686274509803922" d="M 628.5 420 L 645.5 420 L 652 424.5 L 653 432.5 L 651 436.5 L 652 442 Q 649.6 443.8 643.5 443 L 640 440.5 L 638.5 438 L 635 439.5 L 632.5 443 Q 626.3 444.3 625 440.5 L 625 423.5 L 626 421 L 628.5 420 Z M 628 423 L 628 440 L 632 440 L 633 436 Q 641 434 644 440 L 650 440 L 646 436 L 648 435 L 651 430 L 650 427 L 646 423 L 628 423 Z " /><path fill="rgb(4,5,6)" stroke="rgb(4,5,6)" stroke-width="1" opacity="0.9686274509803922" d="M 665.5 420 Q 672.8 418.8 675 422.5 L 684 440.5 Q 682.8 444.3 676.5 443 Q 673.7 438.3 664.5 440 Q 662.6 444.1 655.5 443 Q 652.5 442.5 653 438.5 L 663.5 421 L 665.5 420 Z M 666 423 L 656 440 Q 662 441 664 437 L 674 437 Q 675 441 681 440 L 673 425 Q 672 422 666 423 Z " /><path fill="rgb(4,5,6)" stroke="rgb(4,5,6)" stroke-width="1" opacity="0.9686274509803922" d="M 687.5 420 L 692.5 420 L 701.5 427 L 704.5 420 Q 710.8 418.8 712 422.5 L 713 424.5 L 713 438.5 L 709.5 443 L 704.5 443 L 695 436 L 694 442 L 687.5 443 L 685 440.5 L 685 422.5 L 687.5 420 Z M 689 423 L 687 425 L 687 439 Q 688 441 692 440 L 693 429 L 705 440 L 709 440 L 710 439 L 710 425 Q 709 422 705 423 L 705 434 L 693 423 L 689 423 Z " /><path fill="rgb(4,5,6)" stroke="rgb(4,5,6)" stroke-width="1" opacity="0.9686274509803922" d="M 719.5 420 L 738.5 420 L 741 421 Q 742.6 423.1 742 428.5 L 741 430.5 Q 743.7 432.3 742 438.5 L 741 441 L 736.5 443 L 717.5 443 L 715 442 L 714 435.5 L 715 432.5 Q 712.5 431 714 425.5 L 717.5 421 L 719.5 420 Z M 720 423 Q 716 424 717 432 L 721 434 L 734 435 L 717 435 L 718 440 L 738 440 L 740 437 L 739 432 L 737 429 L 722 429 L 739 428 L 740 425 L 739 423 L 720 423 Z " /><path fill="rgb(4,5,6)" stroke="rgb(4,5,6)" stroke-width="1" opacity="0.9686274509803922" d="M 747.5 420 L 766.5 420 L 769 421 L 770.5 427 L 773.5 422 L 777.5 420 L 790.5 420 L 798 425.5 L 799 434.5 L 793.5 442 Q 787.6 444.6 777.5 443 L 772 439.5 Q 768.9 435.6 769.5 428 L 769 430 Q 763 427.8 765 434.5 L 762.5 437 L 754 437 Q 755 441.7 751.5 443 L 745 442 L 744 439.5 L 744 423.5 L 745 421 L 747.5 420 Z M 747 423 L 747 440 L 752 440 L 752 434 L 762 434 Q 764 433 763 429 L 752 429 L 767 428 L 767 423 L 747 423 Z M 778 423 L 776 424 L 772 430 Q 771 435 774 438 L 778 440 L 792 440 L 794 439 L 796 436 Q 797 428 795 425 L 792 423 L 778 423 Z " /><path fill="rgb(4,5,6)" stroke="rgb(4,5,6)" stroke-width="1" opacity="0.9686274509803922" d="M 803.5 420 L 820.5 420 L 827 424.5 L 828 432.5 L 826 436.5 L 827 442 Q 824.6 443.8 818.5 443 L 815 440.5 L 813.5 438 L 810 439 L 807.5 443 Q 801.3 444.3 800 440.5 L 800 423.5 L 801 421 L 803.5 420 Z M 803 423 L 803 440 L 807 440 L 808 436 L 816 436 L 816 438 Q 818 442 825 440 L 821 436 L 823 435 L 826 430 L 825 427 L 821 423 L 803 423 Z " /><path fill="rgb(4,5,6)" stroke="rgb(4,5,6)" stroke-width="1" opacity="0.9686274509803922" d="M 831.5 420 Q 838.5 418.5 840 422.5 L 843.5 429 L 848 421 Q 850.1 419.4 855.5 420 L 858 422.5 L 858 440.5 Q 856.8 444.3 850.5 443 Q 849 439.5 847.5 442 Q 841.3 443.8 839.5 441 Q 837.8 443.8 832.5 443 L 830 442 L 829 439.5 L 829 422.5 L 831.5 420 Z M 832 423 L 832 440 L 837 440 L 838 434 L 840 439 Q 841 441 846 440 L 851 432 L 851 440 Q 855 441 856 439 L 856 423 L 851 423 L 844 434 L 839 426 Q 838 422 832 423 Z " /><path fill="rgb(4,5,6)" stroke="rgb(4,5,6)" stroke-width="1" opacity="0.9686274509803922" d="M 870.5 420 Q 879.3 418.3 881 423.5 L 889 437.5 L 889 442 Q 886.9 443.6 881.5 443 L 879 442 L 878.5 440 L 869 440 Q 870.1 442.7 867.5 442 Q 866.2 444.2 861.5 443 L 859 442 L 860 435.5 L 870.5 420 Z M 872 423 L 862 439 L 862 440 Q 867 441 868 439 L 869 437 L 880 437 L 882 440 L 887 440 L 878 425 Q 878 422 872 423 Z " /><path fill="rgb(4,5,6)" stroke="rgb(4,5,6)" stroke-width="1" opacity="0.9686274509803922" d="M 893.5 420 L 898.5 420 L 907.5 428 Q 906.7 421.7 910.5 420 L 917 421 L 918 423.5 L 918 439.5 L 917 442 Q 914.9 443.6 909.5 443 L 900.5 435 Q 901.3 441.3 897.5 443 L 891 442 L 890 439.5 L 890 423.5 L 891 421 L 893.5 420 Z M 893 423 L 893 440 L 898 440 L 899 430 L 911 440 L 915 440 L 916 438 L 916 425 Q 915 422 910 423 L 910 433 L 899 423 L 893 423 Z " /><path fill="rgb(4,5,6)" stroke="rgb(4,5,6)" stroke-width="1" opacity="0.9686274509803922" d="M 668.5 427 L 672 432.5 L 666 433 L 668.5 427 Z " /><path fill="rgb(4,5,6)" stroke="rgb(4,5,6)" stroke-width="1" opacity="0.9686274509803922" d="M 199 428 L 210.5 428 L 212 429.5 L 212 435 L 199 435 L 199 428 Z M 201 430 L 201 433 L 210 433 L 210 431 L 209 431 L 208 430 L 201 430 Z " /><path fill="rgb(4,5,6)" stroke="rgb(4,5,6)" stroke-width="1" opacity="0.9686274509803922" d="M 327.5 428 L 338.5 428 L 340 429.5 Q 341 434 338.5 435 L 327.5 435 L 326 433.5 Q 325 429 327.5 428 Z M 329 430 L 329 433 L 337 433 L 337 430 L 329 430 Z " /><path fill="rgb(4,5,6)" stroke="rgb(4,5,6)" stroke-width="1" opacity="0.9686274509803922" d="M 506.5 428 L 517.5 428 L 519 429.5 L 519 435 L 506.5 435 Q 504 434 505 429.5 L 506.5 428 Z M 508 430 L 508 433 L 516 433 L 516 430 L 508 430 Z " /><path fill="rgb(4,5,6)" stroke="rgb(4,5,6)" stroke-width="1" opacity="0.9686274509803922" d="M 633 428 L 643.5 428 L 645 429.5 L 643.5 431 L 633 431 L 633 428 Z " /><path fill="rgb(4,5,6)" stroke="rgb(4,5,6)" stroke-width="1" opacity="0.9686274509803922" d="M 778 428 L 791 428 L 791 435 L 778 435 L 778 428 Z M 780 430 L 780 433 L 789 433 L 789 430 L 780 430 Z " /><path fill="rgb(4,5,6)" stroke="rgb(4,5,6)" stroke-width="1" opacity="0.9686274509803922" d="M 808 428 L 818.5 428 L 820 429.5 L 818.5 431 L 808 431 L 808 428 Z " /><path fill="rgb(4,5,6)" stroke="rgb(4,5,6)" stroke-width="1" opacity="0.9686274509803922" d="M 873 428 Q 875.7 426.9 875 429.5 L 877 432.5 L 871.5 433 L 872 431.5 L 873 428 Z " /><path fill="rgb(5,122,230)" stroke="rgb(5,122,230)" stroke-width="1" opacity="0.9333333333333333" d="M 418.5 72 L 417.5 74 L 418.5 72 Z " /><path fill="rgb(5,122,230)" stroke="rgb(5,122,230)" stroke-width="1" opacity="0.9333333333333333" d="M 462.5 77 L 464 77.5 L 461.5 79 L 462.5 77 Z " /><path fill="rgb(5,122,230)" stroke="rgb(5,122,230)" stroke-width="1" opacity="0.9333333333333333" d="M 490.5 77 L 495 77.5 L 490.5 78 L 490.5 77 Z " /><path fill="rgb(5,122,230)" stroke="rgb(5,122,230)" stroke-width="1" opacity="0.9333333333333333" d="M 508.5 78 L 513 78.5 L 508.5 79 L 508.5 78 Z " /><path fill="rgb(5,122,230)" stroke="rgb(5,122,230)" stroke-width="1" opacity="0.9333333333333333" d="M 453.5 81 L 455 81.5 L 452.5 83 L 453.5 81 Z " /><path fill="rgb(5,122,230)" stroke="rgb(5,122,230)" stroke-width="1" opacity="0.9333333333333333" d="M 487.5 85 L 490 85.5 L 487.5 86 L 487.5 85 Z " /><path fill="rgb(5,122,230)" stroke="rgb(5,122,230)" stroke-width="1" opacity="0.9333333333333333" d="M 550.5 86 L 551.5 88 L 550.5 86 Z " /><path fill="rgb(5,122,230)" stroke="rgb(5,122,230)" stroke-width="1" opacity="0.9333333333333333" d="M 593.5 87 L 594.5 89 L 593.5 87 Z " /><path fill="rgb(5,122,230)" stroke="rgb(5,122,230)" stroke-width="1" opacity="0.9333333333333333" d="M 292.5 89 L 290.5 92 L 292.5 89 Z " /><path fill="rgb(5,122,230)" stroke="rgb(5,122,230)" stroke-width="1" opacity="0.9333333333333333" d="M 704.5 89 L 706.5 92 L 704.5 89 Z " /><path fill="rgb(5,122,230)" stroke="rgb(5,122,230)" stroke-width="1" opacity="0.9333333333333333" d="M 556.5 90 L 558.5 93 L 556.5 90 Z " /><path fill="rgb(5,122,230)" stroke="rgb(5,122,230)" stroke-width="1" opacity="0.9333333333333333" d="M 428.5 99 L 427.5 101 L 428.5 99 Z " /><path fill="rgb(5,122,230)" stroke="rgb(5,122,230)" stroke-width="1" opacity="0.9333333333333333" d="M 560.5 101 L 563.5 105 L 560.5 101 Z " /><path fill="rgb(5,122,230)" stroke="rgb(5,122,230)" stroke-width="1" opacity="0.9333333333333333" d="M 569.5 102 L 571.5 105 L 569.5 102 Z " /><path fill="rgb(5,122,230)" stroke="rgb(5,122,230)" stroke-width="1" opacity="0.9333333333333333" d="M 290.5 103 L 292.5 106 L 290.5 103 Z " /><path fill="rgb(5,122,230)" stroke="rgb(5,122,230)" stroke-width="1" opacity="0.9333333333333333" d="M 424.5 103 L 423.5 105 L 424.5 103 Z " /><path fill="rgb(5,122,230)" stroke="rgb(5,122,230)" stroke-width="1" opacity="0.9333333333333333" d="M 706.5 103 L 704.5 106 L 706.5 103 Z " /><path fill="rgb(5,122,230)" stroke="rgb(5,122,230)" stroke-width="1" opacity="0.9333333333333333" d="M 554.5 106 L 555.5 108 L 554.5 106 Z " /><path fill="rgb(5,122,230)" stroke="rgb(5,122,230)" stroke-width="1" opacity="0.9333333333333333" d="M 565.5 106 L 567.5 109 L 565.5 106 Z " /><path fill="rgb(5,122,230)" stroke="rgb(5,122,230)" stroke-width="1" opacity="0.9333333333333333" d="M 371.5 107 L 374.5 111 L 371.5 107 Z " /><path fill="rgb(5,122,230)" stroke="rgb(5,122,230)" stroke-width="1" opacity="0.9333333333333333" d="M 576.5 110 Q 578.8 109.3 578 111.5 L 578.5 113 L 576.5 110 Z " /><path fill="rgb(5,122,230)" stroke="rgb(5,122,230)" stroke-width="1" opacity="0.9333333333333333" d="M 418.5 111 L 416 114.5 L 415.5 116 L 415 114.5 L 418.5 111 Z " /><path fill="rgb(5,122,230)" stroke="rgb(5,122,230)" stroke-width="1" opacity="0.9333333333333333" d="M 626.5 111 L 623.5 115 L 626.5 111 Z " /><path fill="rgb(5,122,230)" stroke="rgb(5,122,230)" stroke-width="1" opacity="0.9333333333333333" d="M 560.5 112 L 562.5 115 L 560.5 112 Z " /><path fill="rgb(5,122,230)" stroke="rgb(5,122,230)" stroke-width="1" opacity="0.9333333333333333" d="M 616.5 119 L 614.5 122 L 616.5 119 Z " /><path fill="rgb(5,122,230)" stroke="rgb(5,122,230)" stroke-width="1" opacity="0.9333333333333333" d="M 410.5 123 L 410 124.5 L 409.5 126 L 409 124.5 L 410.5 123 Z " /><path fill="rgb(5,122,230)" stroke="rgb(5,122,230)" stroke-width="1" opacity="0.9333333333333333" d="M 408.5 127 L 408 128.5 L 407.5 130 L 407 128.5 L 408.5 127 Z " /><path fill="rgb(5,122,230)" stroke="rgb(5,122,230)" stroke-width="1" opacity="0.9333333333333333" d="M 615.5 127 L 616 130 L 599 129.5 L 615 129 L 615.5 127 Z " /><path fill="rgb(5,122,230)" stroke="rgb(5,122,230)" stroke-width="1" opacity="0.9333333333333333" d="M 381.5 128 L 382.5 129 L 403 129.5 L 381 130 L 381.5 128 Z " /><path fill="rgb(5,122,230)" stroke="rgb(5,122,230)" stroke-width="1" opacity="0.9333333333333333" d="M 557.5 135 L 558 137.5 L 557 137.5 L 557.5 135 Z " /><path fill="rgb(5,122,230)" stroke="rgb(5,122,230)" stroke-width="1" opacity="0.9333333333333333" d="M 391.5 140 L 403 140.5 L 391.5 141 L 391.5 140 Z " /><path fill="rgb(5,122,230)" stroke="rgb(5,122,230)" stroke-width="1" opacity="0.9333333333333333" d="M 594.5 140 L 633 140.5 L 594.5 141 L 594.5 140 Z " /><path fill="rgb(5,122,230)" stroke="rgb(5,122,230)" stroke-width="1" opacity="0.9333333333333333" d="M 377 143 L 402 144 L 401.5 148 L 401 145 L 384.5 145 L 380.5 144 L 377 145 L 377 143 Z " /><path fill="rgb(5,122,230)" stroke="rgb(5,122,230)" stroke-width="1" opacity="0.9333333333333333" d="M 605.5 143 L 617.5 143 L 620 144 L 621 147.5 L 619 146.5 Q 619.9 143.5 615.5 145 L 611.5 146 L 606.5 145 L 605.5 143 Z " /><path fill="rgb(5,122,230)" stroke="rgb(5,122,230)" stroke-width="1" opacity="0.9333333333333333" d="M 489.5 144 L 487.5 147 L 489.5 144 Z " /><path fill="rgb(5,122,230)" stroke="rgb(5,122,230)" stroke-width="1" opacity="0.9333333333333333" d="M 593.5 144 Q 596.9 143.1 595 148.5 L 594 148.5 L 593.5 144 Z " /><path fill="rgb(5,122,230)" stroke="rgb(5,122,230)" stroke-width="1" opacity="0.9333333333333333" d="M 596.5 144 L 604 144.5 L 596.5 145 L 596.5 144 Z " /><path fill="rgb(5,122,230)" stroke="rgb(5,122,230)" stroke-width="1" opacity="0.9333333333333333" d="M 370.5 147 L 372 147.5 Q 369.6 150.1 363.5 149 L 363.5 148 Q 369 149.5 370.5 147 Z " /><path fill="rgb(5,122,230)" stroke="rgb(5,122,230)" stroke-width="1" opacity="0.9333333333333333" d="M 485.5 147 L 484.5 149 L 485.5 147 Z " /><path fill="rgb(5,122,230)" stroke="rgb(5,122,230)" stroke-width="1" opacity="0.9333333333333333" d="M 528.5 148 L 530 173 L 539.5 173 L 540 175.5 Q 541.3 178.3 542.5 176 L 544 176 L 544.5 174 L 552 174 Q 550.7 169.9 554 171 L 554.5 173 L 556 166.5 L 556 164.5 Q 557 160 554.5 159 L 541.5 166 L 541.5 165 L 554.5 157 L 555.5 159 L 557 158.5 L 557 160.5 L 557 198.5 L 554.5 201 L 532.5 211 L 529 210 L 529 203.5 L 530.5 203 L 548 190.5 L 548 177.5 L 544.5 177 L 529.5 185 L 529 173.5 L 528 172.5 L 528 170.5 L 528.5 148 Z " /><path fill="rgb(5,122,230)" stroke="rgb(5,122,230)" stroke-width="1" opacity="0.9333333333333333" d="M 356.5 149 L 355 151.5 L 355 158.5 L 355.5 159 L 399 159 L 400.5 149 L 401 152.5 L 399 161 L 354.5 161 L 354 160.5 L 354 150 L 356.5 149 Z " /><path fill="rgb(5,122,230)" stroke="rgb(5,122,230)" stroke-width="1" opacity="0.9333333333333333" d="M 540.5 149 L 541.5 151 L 540.5 149 Z " /><path fill="rgb(5,122,230)" stroke="rgb(5,122,230)" stroke-width="1" opacity="0.9333333333333333" d="M 588.5 149 L 589 159.5 L 588 159.5 L 588.5 149 Z " /><path fill="rgb(5,122,230)" stroke="rgb(5,122,230)" stroke-width="1" opacity="0.9333333333333333" d="M 481.5 150 L 481 151.5 Q 481.8 153.8 479.5 153 L 481.5 150 Z " /><path fill="rgb(5,122,230)" stroke="rgb(5,122,230)" stroke-width="1" opacity="0.9333333333333333" d="M 516.5 151 L 518 151.5 L 518 209.5 L 516.5 211 L 507.5 211 L 506 209.5 L 506 159.5 L 509 157.5 L 509 159 L 507 159.5 L 507 170.5 L 508 170.5 Q 507.3 167.9 510 169 L 510.5 176 Q 514.6 173.3 514 168 L 516.5 169 L 517 152.5 L 515 152.5 L 516.5 151 Z " /><path fill="rgb(5,122,230)" stroke="rgb(5,122,230)" stroke-width="1" opacity="0.9333333333333333" d="M 595.5 152 Q 598.1 154.5 597 160 L 599.5 159 L 641.5 159 L 642.5 158 L 643 161 L 596.5 161 Q 595.3 160.8 596 154.5 L 595.5 152 Z " /><path fill="rgb(5,122,230)" stroke="rgb(5,122,230)" stroke-width="1" opacity="0.9333333333333333" d="M 629.5 152 L 641.5 153 L 643 154.5 L 642.5 156 L 642 154 Q 639.9 155.6 634.5 155 L 630.5 154 L 629.5 152 Z " /><path fill="rgb(5,122,230)" stroke="rgb(5,122,230)" stroke-width="1" opacity="0.9333333333333333" d="M 446.5 153 L 445.5 155 L 443 154.5 L 446.5 153 Z " /><path fill="rgb(5,122,230)" stroke="rgb(5,122,230)" stroke-width="1" opacity="0.9333333333333333" d="M 451.5 153 L 452.5 155 Q 449.7 155.7 451.5 153 Z " /><path fill="rgb(5,122,230)" stroke="rgb(5,122,230)" stroke-width="1" opacity="0.9333333333333333" d="M 513.5 153 L 512.5 155 L 513.5 153 Z " /><path fill="rgb(5,122,230)" stroke="rgb(5,122,230)" stroke-width="1" opacity="0.9333333333333333" d="M 537.5 154 L 538 160.5 L 537 160.5 L 537.5 154 Z " /><path fill="rgb(5,122,230)" stroke="rgb(5,122,230)" stroke-width="1" opacity="0.9333333333333333" d="M 440.5 155 L 439.5 157 L 437.5 158 L 437 156 L 440.5 155 Z " /><path fill="rgb(5,122,230)" stroke="rgb(5,122,230)" stroke-width="1" opacity="0.9333333333333333" d="M 454.5 155 L 455.5 157 L 454.5 155 Z " /><path fill="rgb(5,122,230)" stroke="rgb(5,122,230)" stroke-width="1" opacity="0.9333333333333333" d="M 494.5 155 L 493.5 157 L 494.5 155 Z " /><path fill="rgb(5,122,230)" stroke="rgb(5,122,230)" stroke-width="1" opacity="0.9333333333333333" d="M 472.5 157 L 473 158.5 L 469.5 161 L 472.5 157 Z " /><path fill="rgb(5,122,230)" stroke="rgb(5,122,230)" stroke-width="1" opacity="0.9333333333333333" d="M 457.5 158 L 465.5 163 L 468 161.5 L 464.5 164 L 460 161.5 L 458.5 159 L 457.5 158 Z " /><path fill="rgb(5,122,230)" stroke="rgb(5,122,230)" stroke-width="1" opacity="0.9333333333333333" d="M 439.5 159 L 440.5 161 L 439.5 159 Z " /><path fill="rgb(5,122,230)" stroke="rgb(5,122,230)" stroke-width="1" opacity="0.9333333333333333" d="M 442.5 161 L 449.5 166 L 452 165 L 453.5 168 L 456.5 169 L 457 167 L 460 168.5 Q 460.8 170.8 458.5 170 Q 457.3 167.8 456 170.5 L 459.5 172 L 461.5 171 L 467 173.5 L 466 175.5 L 467.5 175 L 471 172.5 L 468 172 L 468 169 Q 470.7 170.1 470 167.5 L 474 166 L 473 168.5 Q 475.2 172.2 477.5 167 L 479 167.5 L 465.5 178 L 443.5 163 L 442.5 161 Z M 461 172 L 462 174 Q 463 171 461 172 Z " /><path fill="rgb(5,122,230)" stroke="rgb(5,122,230)" stroke-width="1" opacity="0.9333333333333333" d="M 485 161 L 487 161.5 L 484 163.5 L 485 161 Z " /><path fill="rgb(5,122,230)" stroke="rgb(5,122,230)" stroke-width="1" opacity="0.9333333333333333" d="M 537.5 162 L 540 166.5 L 538 167.5 L 537.5 162 Z " /><path fill="rgb(5,122,230)" stroke="rgb(5,122,230)" stroke-width="1" opacity="0.9333333333333333" d="M 412.5 163 L 413 165.5 L 412 165.5 L 412.5 163 Z " /><path fill="rgb(5,122,230)" stroke="rgb(5,122,230)" stroke-width="1" opacity="0.9333333333333333" d="M 480 165 L 482 165.5 L 480 166.5 L 480 165 Z " /><path fill="rgb(5,122,230)" stroke="rgb(5,122,230)" stroke-width="1" opacity="0.9333333333333333" d="M 583.5 166 L 584 174.5 L 583 174.5 L 583.5 166 Z " /><path fill="rgb(5,122,230)" stroke="rgb(5,122,230)" stroke-width="1" opacity="0.9333333333333333" d="M 493.5 169 L 495 169.5 L 495 210 L 485.5 210 L 484.5 211 L 483 209.5 L 483 177.5 L 493.5 169 Z M 494 170 L 490 174 L 491 175 L 494 173 L 494 170 Z " /><path fill="rgb(5,122,230)" stroke="rgb(5,122,230)" stroke-width="1" opacity="0.9333333333333333" d="M 437.5 170 L 449 178.5 L 449 209.5 L 447.5 211 L 438.5 211 L 437 209.5 L 437 174.5 L 439 172.5 L 437.5 170 Z " /><path fill="rgb(5,122,230)" stroke="rgb(5,122,230)" stroke-width="1" opacity="0.9333333333333333" d="M 724.5 173 L 723.5 175 L 724.5 173 Z " /><path fill="rgb(5,122,230)" stroke="rgb(5,122,230)" stroke-width="1" opacity="0.9333333333333333" d="M 354 175 L 398.5 175 L 399 178.5 L 396.5 177 L 355 177.5 L 355.5 179 L 354 179 L 354 175 Z " /><path fill="rgb(5,122,230)" stroke="rgb(5,122,230)" stroke-width="1" opacity="0.9333333333333333" d="M 597 175 L 642.5 175 L 643 177.5 L 641.5 177 L 598.5 177 L 598 178.5 L 598.5 180 L 597 179.5 Q 598.8 186.3 595.5 188 L 596 186.5 L 597 175 Z " /><path fill="rgb(5,122,230)" stroke="rgb(5,122,230)" stroke-width="1" opacity="0.9333333333333333" d="M 358.5 178 L 374.5 180 L 381 184.5 L 379 187.5 L 381.5 189 L 399 189 L 399.5 182 L 401 189.5 L 377 190 Q 378.3 183.5 374.5 181 L 361.5 180 L 358.5 179 L 358.5 178 Z " /><path fill="rgb(5,122,230)" stroke="rgb(5,122,230)" stroke-width="1" opacity="0.9333333333333333" d="M 628 180 L 631.5 181 L 632.5 180 L 643 180 L 641.5 183 L 628 184 L 628 180 Z " /><path fill="rgb(5,122,230)" stroke="rgb(5,122,230)" stroke-width="1" opacity="0.9333333333333333" d="M 620.5 184 L 627 184.5 L 620 185 L 619.5 190 L 595.5 190 L 595.5 189 L 618.5 189 L 619 185.5 L 620.5 184 Z " /><path fill="rgb(5,122,230)" stroke="rgb(5,122,230)" stroke-width="1" opacity="0.9333333333333333" d="M 470.5 186 L 472 186.5 L 472 210 Q 469 212 461.5 211 L 460 209.5 L 460 187 L 465.5 190 L 470.5 186 Z " /><path fill="rgb(5,122,230)" stroke="rgb(5,122,230)" stroke-width="1" opacity="0.9333333333333333" d="M 376.5 193 L 379 193.5 L 376.5 194 L 376.5 193 Z " /><path fill="rgb(5,122,230)" stroke="rgb(5,122,230)" stroke-width="1" opacity="0.9333333333333333" d="M 381.5 204 L 404.5 204 L 405 205.5 L 417 227.5 L 415.5 231 L 400.5 241 L 379.5 249 L 365 224.5 L 383 209.5 L 381.5 204 Z M 384 205 L 385 212 L 386 206 L 399 206 L 384 205 Z M 403 205 L 403 209 L 402 208 L 400 209 L 392 208 L 390 210 L 390 216 L 393 217 L 400 217 L 400 220 L 402 219 Q 401 215 404 216 L 405 220 L 407 216 L 409 216 L 406 209 L 404 209 L 405 207 L 403 205 Z M 381 213 L 380 215 L 382 214 L 381 213 Z M 376 217 L 372 220 L 370 223 L 370 224 Q 373 225 372 223 L 377 220 Q 378 216 376 217 Z M 380 220 L 378 222 L 380 222 L 380 220 Z M 406 223 L 406 226 L 409 226 Q 408 223 411 224 L 412 225 L 412 223 L 406 223 Z " /><path fill="rgb(5,122,230)" stroke="rgb(5,122,230)" stroke-width="1" opacity="0.9333333333333333" d="M 591.5 204 L 616 204.5 L 612 213.5 L 630 227.5 L 615.5 252 L 592.5 243 L 577 231.5 L 591.5 204 Z M 593 205 L 593 208 L 592 207 L 590 210 L 595 213 L 607 213 L 607 210 L 611 210 L 612 213 L 613 211 L 613 208 L 611 208 L 611 205 L 593 205 Z M 604 214 L 604 216 L 608 216 L 604 214 Z M 612 214 L 610 216 L 613 216 L 612 214 Z M 616 222 L 614 224 L 617 224 Q 618 221 616 222 Z M 581 226 Q 580 229 584 228 Q 585 225 581 226 Z M 580 228 L 578 231 Q 577 233 580 232 L 580 228 Z " /><path fill="rgb(5,122,230)" stroke="rgb(5,122,230)" stroke-width="1" opacity="0.9333333333333333" d="M 295.5 214 L 335 214.5 L 295.5 215 L 295.5 214 Z " /><path fill="rgb(5,122,230)" stroke="rgb(5,122,230)" stroke-width="1" opacity="0.9333333333333333" d="M 662.5 214 L 703 214.5 L 662.5 215 L 662.5 214 Z " /><path fill="rgb(5,122,230)" stroke="rgb(5,122,230)" stroke-width="1" opacity="0.9333333333333333" d="M 545.5 272 L 546 274.5 L 545 274.5 L 545.5 272 Z " /><path fill="rgb(5,122,230)" stroke="rgb(5,122,230)" stroke-width="1" opacity="0.9333333333333333" d="M 450.5 275 L 451 278.5 L 450 278.5 L 450.5 275 Z " /><path fill="rgb(5,122,230)" stroke="rgb(5,122,230)" stroke-width="1" opacity="0.9333333333333333" d="M 806.5 277 L 804.5 280 L 806.5 277 Z " /><path fill="rgb(5,122,230)" stroke="rgb(5,122,230)" stroke-width="1" opacity="0.9333333333333333" d="M 648.5 280 L 649.5 282 L 648.5 280 Z " /><path fill="rgb(5,122,230)" stroke="rgb(5,122,230)" stroke-width="1" opacity="0.9333333333333333" d="M 62.5 282 L 63 284.5 L 62 284.5 L 62.5 282 Z " /><path fill="rgb(5,122,230)" stroke="rgb(5,122,230)" stroke-width="1" opacity="0.9333333333333333" d="M 920.5 282 L 921.5 284 L 920.5 282 Z " /><path fill="rgb(5,122,230)" stroke="rgb(5,122,230)" stroke-width="1" opacity="0.9333333333333333" d="M 651.5 283 L 653.5 286 L 651.5 283 Z " /><path fill="rgb(5,122,230)" stroke="rgb(5,122,230)" stroke-width="1" opacity="0.9333333333333333" d="M 1008.5 283 L 1007.5 285 L 1008.5 283 Z " /><path fill="rgb(5,122,230)" stroke="rgb(5,122,230)" stroke-width="1" opacity="0.9333333333333333" d="M 259.5 284 L 259 285.5 L 258.5 287 L 258 285.5 L 259.5 284 Z " /><path fill="rgb(5,122,230)" stroke="rgb(5,122,230)" stroke-width="1" opacity="0.9333333333333333" d="M 708.5 284 L 709 306.5 L 710.5 308 L 714 307 Q 713 304 716 305 L 716 307 L 720 307 L 720 308.5 L 721.5 308 Q 723.8 308.8 723 306.5 L 726.5 301 L 727 335 L 709.5 335 L 708 333.5 L 708.5 284 Z " /><path fill="rgb(5,122,230)" stroke="rgb(5,122,230)" stroke-width="1" opacity="0.9333333333333333" d="M 896.5 284 L 898.5 287 L 896.5 284 Z " /><path fill="rgb(5,122,230)" stroke="rgb(5,122,230)" stroke-width="1" opacity="0.9333333333333333" d="M 420.5 285 L 419.5 287 L 420.5 285 Z " /><path fill="rgb(5,122,230)" stroke="rgb(5,122,230)" stroke-width="1" opacity="0.9333333333333333" d="M 678.5 285 L 679 297.5 L 680 299.5 L 679 302.5 L 680 307 L 684 307.5 L 682 308.5 L 685.5 309 L 687.5 308 L 689.5 309 L 691.5 308 L 695 309.5 L 694.5 311 L 696.5 310 L 697 328.5 L 693.5 334 Q 690.2 337.2 682.5 336 L 671.5 328 L 640 299.5 L 642 299 L 643.5 302 L 649 304 L 653.5 310 Q 658 309.5 658.5 313 L 660 310 L 671 303.5 L 669 299 L 663 294.5 L 667.5 298 L 678 306 L 678.5 285 Z M 673 304 L 670 307 L 670 308 L 674 308 L 673 304 Z M 678 310 L 678 311 L 680 311 L 678 310 Z " /><path fill="rgb(5,122,230)" stroke="rgb(5,122,230)" stroke-width="1" opacity="0.9333333333333333" d="M 607.5 286 L 608 332.5 L 605.5 335 L 587 335 L 587.5 304 L 588 311 Q 590.7 312.1 590 309.5 Q 587.8 308.2 590.5 307 L 592 307 L 592.5 309 L 601 309 L 602 297.5 Q 607.4 294.4 607.5 286 Z " /><path fill="rgb(5,122,230)" stroke="rgb(5,122,230)" stroke-width="1" opacity="0.9333333333333333" d="M 245.5 287 L 246.5 289 L 245.5 287 Z " /><path fill="rgb(5,122,230)" stroke="rgb(5,122,230)" stroke-width="1" opacity="0.9333333333333333" d="M 655.5 287 L 656.5 289 L 655.5 287 Z " /><path fill="rgb(5,122,230)" stroke="rgb(5,122,230)" stroke-width="1" opacity="0.9333333333333333" d="M 1005.5 287 L 1005 288.5 L 1002.5 292 L 1004 289.5 L 1005.5 287 Z " /><path fill="rgb(5,122,230)" stroke="rgb(5,122,230)" stroke-width="1" opacity="0.9333333333333333" d="M 1047.5 287 L 1050 290.5 L 1048 289.5 L 1047.5 287 Z " /><path fill="rgb(5,122,230)" stroke="rgb(5,122,230)" stroke-width="1" opacity="0.9333333333333333" d="M 202.5 288 L 203 289.5 L 200 291.5 L 202.5 288 Z " /><path fill="rgb(5,122,230)" stroke="rgb(5,122,230)" stroke-width="1" opacity="0.9333333333333333" d="M 288.5 288 L 289 292 L 292 293.5 L 294 297.5 L 294 299.5 L 295 306 L 297.5 307 Q 298.8 304.8 303.5 306 L 306 307 L 307.5 311 L 308.5 303 L 309 335 L 290.5 335 L 288 332.5 L 288.5 288 Z " /><path fill="rgb(5,122,230)" stroke="rgb(5,122,230)" stroke-width="1" opacity="0.9333333333333333" d="M 395.5 288 L 396 335 L 375 335 L 375 301.5 L 376 301.5 Q 374.8 306.3 377 307.5 L 376 311 Q 378.7 312.1 378 309.5 L 379.5 308 L 390.5 308 L 393 305.5 L 393.5 304 L 394.5 306 L 395.5 288 Z " /><path fill="rgb(5,122,230)" stroke="rgb(5,122,230)" stroke-width="1" opacity="0.9333333333333333" d="M 453.5 288 L 456 288.5 L 453.5 289 L 453.5 288 Z " /><path fill="rgb(5,122,230)" stroke="rgb(5,122,230)" stroke-width="1" opacity="0.9333333333333333" d="M 798.5 288 L 799 289.5 L 797 290.5 L 798.5 288 Z " /><path fill="rgb(5,122,230)" stroke="rgb(5,122,230)" stroke-width="1" opacity="0.9333333333333333" d="M 60.5 289 L 61 291.5 L 60 291.5 L 60.5 289 Z " /><path fill="rgb(5,122,230)" stroke="rgb(5,122,230)" stroke-width="1" opacity="0.9333333333333333" d="M 658.5 289 L 659.5 291 L 658.5 289 Z " /><path fill="rgb(5,122,230)" stroke="rgb(5,122,230)" stroke-width="1" opacity="0.9333333333333333" d="M 747.5 289 L 765.5 306 L 767 306 L 767.5 300 L 768 305 L 775 305 L 775 309 L 776.5 309 Q 778 312.5 784.5 311 L 784.5 310 L 783 309.5 Q 786.3 304.3 785.5 295 L 786 328.5 L 782.5 334 Q 779.2 337.2 771.5 336 L 751 320 Q 752.1 317.3 749.5 318 L 729 299.5 L 730.5 299 L 732 299.5 L 732.5 298 Q 734.8 298.8 734 302.5 L 737.5 306 L 745 311 Q 743.6 307.3 749.5 309 L 751.5 308 L 753.5 309 L 758.5 308 L 762 309 Q 761 312 764 311 Q 762.6 307.3 768.5 309 L 771 307.5 L 768.5 307 L 766.5 308 L 762.5 304 L 761.5 305 Q 759.3 305.8 760 303.5 L 757.5 299 L 747.5 289 Z " /><path fill="rgb(5,122,230)" stroke="rgb(5,122,230)" stroke-width="1" opacity="0.9333333333333333" d="M 865.5 289 L 868.5 293 L 865.5 289 Z " /><path fill="rgb(5,122,230)" stroke="rgb(5,122,230)" stroke-width="1" opacity="0.9333333333333333" d="M 889.5 289 L 891 292.5 L 889 291.5 L 889.5 289 Z " /><path fill="rgb(5,122,230)" stroke="rgb(5,122,230)" stroke-width="1" opacity="0.9333333333333333" d="M 95.5 290 L 97 292.5 L 95 291.5 L 95.5 290 Z " /><path fill="rgb(5,122,230)" stroke="rgb(5,122,230)" stroke-width="1" opacity="0.9333333333333333" d="M 956.5 290 L 957 291.5 L 954.5 295 L 954 293.5 L 956.5 290 Z " /><path fill="rgb(5,122,230)" stroke="rgb(5,122,230)" stroke-width="1" opacity="0.9333333333333333" d="M 901.5 291 L 902.5 293 L 901.5 291 Z " /><path fill="rgb(5,122,230)" stroke="rgb(5,122,230)" stroke-width="1" opacity="0.9333333333333333" d="M 980.5 291 L 979.5 293 L 980.5 291 Z " /><path fill="rgb(5,122,230)" stroke="rgb(5,122,230)" stroke-width="1" opacity="0.9333333333333333" d="M 118.5 292 L 119 293.5 L 117 294.5 L 118.5 292 Z " /><path fill="rgb(5,122,230)" stroke="rgb(5,122,230)" stroke-width="1" opacity="0.9333333333333333" d="M 249.5 292 L 252 296.5 L 251 296.5 L 249.5 292 Z " /><path fill="rgb(5,122,230)" stroke="rgb(5,122,230)" stroke-width="1" opacity="0.9333333333333333" d="M 927.5 292 L 941.5 312 L 950.5 299 L 951 300.5 L 946 307.5 L 947.5 308 L 951.5 306 L 955.5 308 L 957.5 307 L 959.5 308 L 961.5 307 L 963.5 308 L 966.5 307 L 968 307.5 Q 966.3 302.7 970.5 304 Q 973.8 302.8 973 299 Q 975.7 300.1 975 297.5 L 978 295.5 L 950.5 333 Q 946.3 337.3 936.5 336 L 929 331.5 L 906 297.5 L 907 297.5 L 913.5 307 L 914.5 304 L 916 308 L 926 307 L 926.5 305 L 929.5 307 L 932.5 305 Q 933.8 307.3 935 304.5 L 927 293.5 L 927.5 292 Z M 915 307 L 914 309 L 916 310 L 915 307 Z M 946 308 L 944 311 L 946 310 L 946 308 Z M 949 308 L 949 309 L 952 310 L 954 309 L 949 308 Z M 965 308 L 965 309 L 967 309 L 965 308 Z " /><path fill="rgb(5,122,230)" stroke="rgb(5,122,230)" stroke-width="1" opacity="0.9333333333333333" d="M 1051.5 292 L 1079 331.5 L 1080 335 L 1005.5 335 L 1005 333.5 L 1016.5 318 L 1042.5 318 L 1043 316.5 L 1027 293.5 L 1029 294.5 L 1032.5 299 L 1036 301.5 L 1035 303.5 L 1038.5 305 Q 1040.8 304.3 1040 306.5 L 1041.5 309 L 1042 307 L 1052.5 307 L 1055 308 L 1056 301.5 L 1051 293.5 L 1051.5 292 Z M 1059 304 Q 1057 309 1061 310 L 1062 310 L 1059 304 Z " /><path fill="rgb(5,122,230)" stroke="rgb(5,122,230)" stroke-width="1" opacity="0.9333333333333333" d="M 155.5 293 L 157 297.5 L 155 296.5 L 155.5 293 Z " /><path fill="rgb(5,122,230)" stroke="rgb(5,122,230)" stroke-width="1" opacity="0.9333333333333333" d="M 225.5 293 L 227 295.5 L 226 295.5 L 225.5 293 Z " /><path fill="rgb(5,122,230)" stroke="rgb(5,122,230)" stroke-width="1" opacity="0.9333333333333333" d="M 817.5 293 L 818 295.5 L 817 295.5 L 817.5 293 Z " /><path fill="rgb(5,122,230)" stroke="rgb(5,122,230)" stroke-width="1" opacity="0.9333333333333333" d="M 1025.5 293 L 1025 294.5 L 1021.5 300 L 1021 297 L 1024 295.5 L 1025.5 293 Z " /><path fill="rgb(5,122,230)" stroke="rgb(5,122,230)" stroke-width="1" opacity="0.9333333333333333" d="M 97.5 294 L 100 297.5 L 97 295.5 L 97.5 294 Z " /><path fill="rgb(5,122,230)" stroke="rgb(5,122,230)" stroke-width="1" opacity="0.9333333333333333" d="M 198.5 294 L 199 295.5 L 197 299 L 195 298.5 L 198.5 294 Z " /><path fill="rgb(5,122,230)" stroke="rgb(5,122,230)" stroke-width="1" opacity="0.9333333333333333" d="M 456.5 294 L 538.5 294 L 544 297.5 L 545 304.5 L 543 309 L 538.5 311 L 457.5 311 L 452 307.5 L 451 299.5 L 454.5 295 L 456.5 294 Z " /><path fill="rgb(5,122,230)" stroke="rgb(5,122,230)" stroke-width="1" opacity="0.9333333333333333" d="M 796.5 294 L 797 306 Q 801.1 304.7 800 308 Q 796.7 306.9 798 311 L 800.5 312 Q 804.8 308.3 812 309 Q 810.1 303.4 815 305 L 815.5 308 L 816.5 299 L 817 308.5 L 821.5 315 L 828.5 318 L 850.5 319 L 851.5 318 L 862.5 317 L 869 311.5 L 870.5 306 L 871.5 310 L 872.5 307 L 879.5 308 L 882.5 307 L 888 309 L 889.5 306 Q 892 307 891 311.5 Q 888.6 322.6 880.5 328 Q 873.6 333.1 863.5 335 Q 857.2 333.3 855.5 336 L 831.5 336 L 813.5 332 L 802 323.5 Q 793 313.9 796.5 294 Z " /><path fill="rgb(5,122,230)" stroke="rgb(5,122,230)" stroke-width="1" opacity="0.9333333333333333" d="M 1000.5 294 L 1001 295.5 L 997 300.5 L 997.5 302 L 995 301.5 L 1000.5 294 Z " /><path fill="rgb(5,122,230)" stroke="rgb(5,122,230)" stroke-width="1" opacity="0.9333333333333333" d="M 221 295 L 223 295.5 L 194.5 335 L 170 334.5 L 194.5 300 L 194 301.5 L 191 307.5 L 192 311 L 194 311 Q 192.9 308.3 195.5 309 L 197.5 308 Q 198.8 310.3 203.5 309 L 203.5 307 L 208.5 306 L 207 308.5 L 208.5 311 L 213 307.5 L 221 295 Z " /><path fill="rgb(5,122,230)" stroke="rgb(5,122,230)" stroke-width="1" opacity="0.9333333333333333" d="M 870.5 295 L 871 297.5 L 870 297.5 L 870.5 295 Z " /><path fill="rgb(5,122,230)" stroke="rgb(5,122,230)" stroke-width="1" opacity="0.9333333333333333" d="M 58.5 296 L 59 298.5 L 57 299.5 L 58.5 296 Z " /><path fill="rgb(5,122,230)" stroke="rgb(5,122,230)" stroke-width="1" opacity="0.9333333333333333" d="M 116.5 296 L 117 297.5 L 113.5 302 L 114 300.5 L 116.5 296 Z " /><path fill="rgb(5,122,230)" stroke="rgb(5,122,230)" stroke-width="1" opacity="0.9333333333333333" d="M 77.5 297 L 77 298.5 Q 77.8 301.1 74.5 300 L 74.5 299 L 77.5 297 Z " /><path fill="rgb(5,122,230)" stroke="rgb(5,122,230)" stroke-width="1" opacity="0.9333333333333333" d="M 228.5 297 L 231 301.5 L 230 301.5 L 228.5 297 Z " /><path fill="rgb(5,122,230)" stroke="rgb(5,122,230)" stroke-width="1" opacity="0.9333333333333333" d="M 62.5 298 L 64 298.5 L 61.5 300 L 62.5 298 Z " /><path fill="rgb(5,122,230)" stroke="rgb(5,122,230)" stroke-width="1" opacity="0.9333333333333333" d="M 248 298 Q 251 297 250 300 Q 247 301 248 298 Z " /><path fill="rgb(5,122,230)" stroke="rgb(5,122,230)" stroke-width="1" opacity="0.9333333333333333" d="M 253.5 298 L 277 331.5 L 278 335 L 203.5 335 L 203 333.5 L 214.5 318 L 240.5 318 L 241 316.5 L 232 303.5 L 233.5 304 Q 236.8 302.9 236 305.5 L 236 307.5 L 238.5 311 L 239.5 309 L 241.5 310 L 250 307 L 250 312 L 252 312 L 252 306 L 254 306 L 254.5 308 Q 256.8 307.3 256 303.5 L 253 299.5 L 253.5 298 Z M 254 309 L 254 312 Q 258 313 257 311 L 254 309 Z " /><path fill="rgb(5,122,230)" stroke="rgb(5,122,230)" stroke-width="1" opacity="0.9333333333333333" d="M 619.5 298 L 620 307 L 623 308.5 L 620 309.5 L 623.5 311 L 625.5 307 Q 630.8 305.8 632 308.5 L 632.5 311 L 634.5 308 L 636.5 309 L 637.5 300 L 638 335 L 619 335 L 619.5 298 Z " /><path fill="rgb(5,122,230)" stroke="rgb(5,122,230)" stroke-width="1" opacity="0.9333333333333333" d="M 80.5 299 L 85.5 308 Q 87.8 307.3 87 309.5 Q 84.7 310.8 87.5 312 Q 90.2 310.8 88 309.5 L 89 306 L 92 306 L 92 311 L 94 311 L 95 307.5 L 94 305 Q 97 304 96 307 L 99.5 307 L 102.5 311 L 104 307 L 101 305.5 L 100 303.5 L 101.5 301 L 107.5 312 L 112.5 303 Q 112.3 307.7 115.5 309 L 127 307 L 128.5 310 L 134.5 299 L 134 300.5 L 121 326.5 L 114.5 335 L 102.5 336 L 97 332.5 L 80 300.5 L 80.5 299 Z " /><path fill="rgb(5,122,230)" stroke="rgb(5,122,230)" stroke-width="1" opacity="0.9333333333333333" d="M 891.5 299 L 892 305.5 L 891 305.5 L 891.5 299 Z " /><path fill="rgb(5,122,230)" stroke="rgb(5,122,230)" stroke-width="1" opacity="0.9333333333333333" d="M 137.5 300 L 141.5 308 L 143.5 309 L 145 305 Q 149.5 303.5 148 308 L 151.5 308 Q 152.7 310.3 157.5 309 L 160 307.5 L 167 335 L 147.5 335 L 147 333.5 L 144 326.5 L 137.5 300 Z M 142 310 Q 141 313 144 312 Q 145 309 142 310 Z " /><path fill="rgb(5,122,230)" stroke="rgb(5,122,230)" stroke-width="1" opacity="0.9333333333333333" d="M 157.5 300 L 159 305.5 L 157.5 305 Q 154.9 305.8 156 302.5 L 157.5 300 Z " /><path fill="rgb(5,122,230)" stroke="rgb(5,122,230)" stroke-width="1" opacity="0.9333333333333333" d="M 57 301 Q 62.3 299.2 60 306.5 Q 63.2 309.8 70 309.5 Q 67.8 310.8 70.5 312 L 72 312 L 72 308 Q 74.7 309.1 74 306.5 L 75 301 L 77 301.5 L 68 335 L 47.5 335 L 47 333.5 L 57 301 Z " /><path fill="rgb(5,122,230)" stroke="rgb(5,122,230)" stroke-width="1" opacity="0.9333333333333333" d="M 871.5 301 L 872 304.5 L 871 304.5 L 871.5 301 Z " /><path fill="rgb(5,122,230)" stroke="rgb(5,122,230)" stroke-width="1" opacity="0.9333333333333333" d="M 1019.5 301 L 1020 302.5 L 997 335 L 972 334.5 L 994.5 303 L 995 306.5 L 994.5 308 L 1011.5 308 L 1012 304.5 Q 1013.3 301.8 1014.5 304 L 1016.5 305 L 1017 303 Q 1019.8 304 1019.5 301 Z M 1012 308 L 1012 310 L 1014 309 L 1012 308 Z " /><path fill="rgb(5,122,230)" stroke="rgb(5,122,230)" stroke-width="1" opacity="0.9333333333333333" d="M 62 302 Q 65.7 300.8 64 306 Q 60.3 307.2 62 302 Z " /><path fill="rgb(5,122,230)" stroke="rgb(5,122,230)" stroke-width="1" opacity="0.9333333333333333" d="M 756 302 Q 759 301 758 304 Q 755 305 756 302 Z " /><path fill="rgb(5,122,230)" stroke="rgb(5,122,230)" stroke-width="1" opacity="0.9333333333333333" d="M 252 303 Q 255 302 254 305 Q 251 306 252 303 Z " /><path fill="rgb(5,122,230)" stroke="rgb(5,122,230)" stroke-width="1" opacity="0.9333333333333333" d="M 919 303 Q 923.5 301.5 922 306 Q 917.5 307.5 919 303 Z " /><path fill="rgb(5,122,230)" stroke="rgb(5,122,230)" stroke-width="1" opacity="0.9333333333333333" d="M 1006 304 Q 1010.1 302.7 1009 306 Q 1004.9 307.3 1006 304 Z " /><path fill="rgb(5,122,230)" stroke="rgb(5,122,230)" stroke-width="1" opacity="0.9333333333333333" d="M 470.5 313 L 525.5 313 L 531 317.5 L 532 323.5 L 528.5 329 L 526.5 330 L 469.5 330 L 465 326.5 L 464 319.5 L 468.5 314 L 470.5 313 Z " /><path fill="rgb(5,122,230)" stroke="rgb(5,122,230)" stroke-width="1" opacity="0.9333333333333333" d="M 475 332 L 520.5 332 L 521 335.5 Q 518.4 342.9 512.5 347 Q 505.8 352.8 491.5 351 Q 481.8 348.3 477 340.5 Q 474.2 337.5 475 332 Z " /><path fill="rgb(5,122,230)" stroke="rgb(5,122,230)" stroke-width="1" opacity="0.9333333333333333" d="M 134.5 367 L 135 371.5 L 134 371.5 L 134.5 367 Z " /><path fill="rgb(5,122,230)" stroke="rgb(5,122,230)" stroke-width="1" opacity="0.9333333333333333" d="M 293.5 370 L 295 372.5 L 293 371.5 L 293.5 370 Z " /><path fill="rgb(5,122,230)" stroke="rgb(5,122,230)" stroke-width="1" opacity="0.9333333333333333" d="M 949.5 370 L 950 394.5 L 949 397 L 939.5 397 L 922 381.5 L 925 382.5 L 926.5 380 L 929.5 381 Q 932.1 380.2 931 383.5 L 932.5 387 L 934 381.5 L 933 379 L 928 375.5 L 931.5 378 L 939.5 385 L 940.5 375 L 941.5 379 L 944 378 L 944 380 Q 939.9 378.7 941 382 L 946 382 L 946 383.5 L 948 383.5 L 948.5 385 L 949.5 370 Z " /><path fill="rgb(5,122,230)" stroke="rgb(5,122,230)" stroke-width="1" opacity="0.9333333333333333" d="M 706.5 371 L 707 381.5 L 709.5 384 L 714 385 L 714 383 Q 716.7 384.1 716 381.5 L 717 381.5 L 717 397 L 707.5 397 L 706 395.5 L 706.5 371 Z " /><path fill="rgb(5,122,230)" stroke="rgb(5,122,230)" stroke-width="1" opacity="0.9333333333333333" d="M 788.5 371 L 789 373.5 L 787 374.5 L 788.5 371 Z " /><path fill="rgb(5,122,230)" stroke="rgb(5,122,230)" stroke-width="1" opacity="0.9333333333333333" d="M 373.5 372 L 374 388 L 404.5 388 L 405 388.5 L 405 395.5 L 403.5 397 L 366.5 397 L 365 395.5 L 365 382.5 L 367.5 384 L 368.5 383 L 371 383.5 L 370 385.5 Q 371.5 388.5 373 385.5 L 373.5 372 Z " /><path fill="rgb(5,122,230)" stroke="rgb(5,122,230)" stroke-width="1" opacity="0.9333333333333333" d="M 608.5 372 L 609 378 Q 612.8 377 614 379.5 Q 612.9 382.8 615.5 382 L 617 380.5 L 617.5 373 L 618 397 L 609.5 397 L 608 395.5 L 608.5 372 Z " /><path fill="rgb(5,122,230)" stroke="rgb(5,122,230)" stroke-width="1" opacity="0.9333333333333333" d="M 833.5 372 L 834 387.5 L 829.5 394 L 824.5 397 L 797.5 397 L 789 390.5 Q 786.3 387.2 787 380.5 L 788 380.5 L 788.5 383 L 789.5 381 L 790 383 L 792 383 Q 790.9 380.3 793.5 381 Q 794.8 383.2 796 380.5 L 796.5 378 L 797 384.5 L 799.5 387 L 801.5 388 L 820.5 388 L 824 385.5 L 825 378 Q 829.1 376.3 828 380.5 L 831.5 383 L 833 381.5 L 833.5 372 Z " /><path fill="rgb(5,122,230)" stroke="rgb(5,122,230)" stroke-width="1" opacity="0.9333333333333333" d="M 249.5 373 L 249 374.5 L 250.5 378 Q 253.5 377.2 252 381 L 257 381 L 257.5 375 L 258 384.5 L 260.5 387 L 262.5 388 L 281.5 388 L 285 385.5 L 286 376.5 L 285.5 375 Q 288 376 287 380.5 L 290.5 384 L 293.5 378 L 295 379.5 L 295 387.5 L 290.5 394 L 285.5 397 L 258.5 397 L 250 390.5 Q 246.4 385.1 248 374.5 L 249.5 373 Z " /><path fill="rgb(5,122,230)" stroke="rgb(5,122,230)" stroke-width="1" opacity="0.9333333333333333" d="M 798.5 373 L 797.5 375 L 798.5 373 Z " /><path fill="rgb(5,122,230)" stroke="rgb(5,122,230)" stroke-width="1" opacity="0.9333333333333333" d="M 823.5 373 L 825 375.5 L 824 375.5 L 823.5 373 Z " /><path fill="rgb(5,122,230)" stroke="rgb(5,122,230)" stroke-width="1" opacity="0.9333333333333333" d="M 171.5 375 L 178 379.5 Q 180.5 383 179 390.5 L 175.5 396 L 173.5 397 L 135.5 397 L 134 395.5 L 134 388 L 168.5 388 L 169 385.5 L 167.5 384 L 138.5 384 L 135 381.5 L 134 376.5 L 135 376.5 Q 134.3 381.3 137.5 382 L 140.5 383 L 142.5 381 L 161.5 381 L 163.5 381 L 168.5 380 L 169.5 381 L 176 381 L 175 377 Q 171.2 377.8 171.5 375 Z " /><path fill="rgb(5,122,230)" stroke="rgb(5,122,230)" stroke-width="1" opacity="0.9333333333333333" d="M 915.5 375 L 919 377 L 919 379 Q 921.7 377.9 921 380.5 L 915.5 375 Z " /><path fill="rgb(5,122,230)" stroke="rgb(5,122,230)" stroke-width="1" opacity="0.9333333333333333" d="M 913.5 376 L 914 397 L 906.5 397 L 905 395.5 L 905.5 378 L 907.5 381 Q 911.3 380 910 383 L 913 383 L 913.5 376 Z " /><path fill="rgb(5,122,230)" stroke="rgb(5,122,230)" stroke-width="1" opacity="0.9333333333333333" d="M 520.5 377 L 521 388.5 L 517.5 395 L 513.5 397 L 481.5 397 L 476 392.5 L 475 383 L 481.5 381 L 484 382 L 484.5 378 L 485 386.5 L 486.5 388 L 508.5 388 L 511 387 L 511.5 378 L 512.5 384 L 513.5 382 L 515.5 382 L 517.5 383 L 520 382.5 L 520.5 377 Z " /><path fill="rgb(5,122,230)" stroke="rgb(5,122,230)" stroke-width="1" opacity="0.9333333333333333" d="M 228.5 423 L 229 434.5 L 228 434.5 L 228.5 423 Z " /><path fill="rgb(5,122,230)" stroke="rgb(5,122,230)" stroke-width="1" opacity="0.9333333333333333" d="M 255.5 423 L 256 434.5 L 255 434.5 L 255.5 423 Z " /><path fill="rgb(5,122,230)" stroke="rgb(5,122,230)" stroke-width="1" opacity="0.9333333333333333" d="M 268.5 423 L 269 433.5 L 268 433.5 L 268.5 423 Z " /><path fill="rgb(5,122,230)" stroke="rgb(5,122,230)" stroke-width="1" opacity="0.9333333333333333" d="M 536.5 423 L 537 434.5 L 538 435.5 L 536 434.5 L 536.5 423 Z " /><path fill="rgb(5,122,230)" stroke="rgb(5,122,230)" stroke-width="1" opacity="0.9333333333333333" d="M 549.5 423 L 550 433.5 L 549 433.5 L 549.5 423 Z " /><path fill="rgb(5,122,230)" stroke="rgb(5,122,230)" stroke-width="1" opacity="0.9333333333333333" d="M 855.5 423 L 856 438.5 L 855 438.5 L 855.5 423 Z " /><path fill="rgb(5,122,230)" stroke="rgb(5,122,230)" stroke-width="1" opacity="0.9333333333333333" d="M 898.5 423 L 900.5 426 L 898.5 423 Z " /><path fill="rgb(5,122,230)" stroke="rgb(5,122,230)" stroke-width="1" opacity="0.9333333333333333" d="M 910.5 423 L 911 433.5 L 910 433.5 L 910.5 423 Z " /><path fill="rgb(5,122,230)" stroke="rgb(5,122,230)" stroke-width="1" opacity="0.9333333333333333" d="M 214.5 424 L 215.5 426 L 214.5 424 Z " /><path fill="rgb(5,122,230)" stroke="rgb(5,122,230)" stroke-width="1" opacity="0.9333333333333333" d="M 314.5 424 L 315 439.5 L 314 439.5 L 314.5 424 Z " /><path fill="rgb(5,122,230)" stroke="rgb(5,122,230)" stroke-width="1" opacity="0.9333333333333333" d="M 739.5 424 L 740 426.5 L 739 426.5 L 739.5 424 Z " /><path fill="rgb(5,122,230)" stroke="rgb(5,122,230)" stroke-width="1" opacity="0.9333333333333333" d="M 775.5 424 L 773.5 427 L 775.5 424 Z " /><path fill="rgb(5,122,230)" stroke="rgb(5,122,230)" stroke-width="1" opacity="0.9333333333333333" d="M 915.5 424 L 916 437.5 L 915 437.5 L 915.5 424 Z " /><path fill="rgb(5,122,230)" stroke="rgb(5,122,230)" stroke-width="1" opacity="0.9333333333333333" d="M 273.5 426 L 274 434.5 L 273 434.5 L 273.5 426 Z " /><path fill="rgb(5,122,230)" stroke="rgb(5,122,230)" stroke-width="1" opacity="0.9333333333333333" d="M 360.5 426 L 363.5 430 L 360.5 426 Z " /><path fill="rgb(5,122,230)" stroke="rgb(5,122,230)" stroke-width="1" opacity="0.9333333333333333" d="M 554.5 426 L 555 434.5 L 554 434.5 L 554.5 426 Z " /><path fill="rgb(5,122,230)" stroke="rgb(5,122,230)" stroke-width="1" opacity="0.9333333333333333" d="M 387.5 427 L 401 427.5 L 387 428.5 L 396.5 429 L 398 430.5 L 396.5 434 L 387.5 434 L 387 435.5 L 386 435.5 L 387.5 433 L 396.5 433 L 397 430 L 387.5 430 L 386 428.5 L 387.5 427 Z " /><path fill="rgb(5,122,230)" stroke="rgb(5,122,230)" stroke-width="1" opacity="0.9333333333333333" d="M 567.5 427 L 581 427.5 L 567 428.5 L 576.5 429 L 578 430.5 L 576.5 434 L 567.5 434 L 567 435.5 L 566 435.5 L 567.5 433 L 576.5 433 L 577 430 L 567.5 430 L 566 428.5 L 567.5 427 Z " /><path fill="rgb(5,122,230)" stroke="rgb(5,122,230)" stroke-width="1" opacity="0.9333333333333333" d="M 607.5 428 L 608 438.5 L 607 438.5 L 607.5 428 Z " /><path fill="rgb(5,122,230)" stroke="rgb(5,122,230)" stroke-width="1" opacity="0.9333333333333333" d="M 632.5 428 L 633 430.5 L 632 430.5 L 632.5 428 Z " /><path fill="rgb(5,122,230)" stroke="rgb(5,122,230)" stroke-width="1" opacity="0.9333333333333333" d="M 698.5 428 L 699.5 430 L 698.5 428 Z " /><path fill="rgb(5,122,230)" stroke="rgb(5,122,230)" stroke-width="1" opacity="0.9333333333333333" d="M 807.5 428 L 808 430.5 L 807 430.5 L 807.5 428 Z " /><path fill="rgb(5,122,230)" stroke="rgb(5,122,230)" stroke-width="1" opacity="0.9333333333333333" d="M 193.5 429 L 194 433.5 L 193 433.5 L 193.5 429 Z " /><path fill="rgb(5,122,230)" stroke="rgb(5,122,230)" stroke-width="1" opacity="0.9333333333333333" d="M 198.5 429 L 199 433.5 L 198 433.5 L 198.5 429 Z " /><path fill="rgb(5,122,230)" stroke="rgb(5,122,230)" stroke-width="1" opacity="0.9333333333333333" d="M 279.5 429 L 280 433.5 L 279 433.5 L 279.5 429 Z " /><path fill="rgb(5,122,230)" stroke="rgb(5,122,230)" stroke-width="1" opacity="0.9333333333333333" d="M 762.5 429 L 763 432.5 L 762 432.5 L 762.5 429 Z " /><path fill="rgb(5,122,230)" stroke="rgb(5,122,230)" stroke-width="1" opacity="0.9333333333333333" d="M 772.5 429 L 773 433.5 L 772 433.5 L 772.5 429 Z " /><path fill="rgb(5,122,230)" stroke="rgb(5,122,230)" stroke-width="1" opacity="0.9333333333333333" d="M 777.5 429 L 778 433.5 L 777 433.5 L 777.5 429 Z " /><path fill="rgb(5,122,230)" stroke="rgb(5,122,230)" stroke-width="1" opacity="0.9333333333333333" d="M 897 429 L 900 430.5 L 898 430.5 L 897.5 440 L 897 429 Z " /><path fill="rgb(5,122,230)" stroke="rgb(5,122,230)" stroke-width="1" opacity="0.9333333333333333" d="M 907.5 431 L 908.5 433 L 907.5 431 Z " /><path fill="rgb(5,122,230)" stroke="rgb(5,122,230)" stroke-width="1" opacity="0.9333333333333333" d="M 649.5 432 L 647.5 435 L 649.5 432 Z " /><path fill="rgb(5,122,230)" stroke="rgb(5,122,230)" stroke-width="1" opacity="0.9333333333333333" d="M 824.5 432 L 822.5 435 L 824.5 432 Z " /><path fill="rgb(5,122,230)" stroke="rgb(5,122,230)" stroke-width="1" opacity="0.9333333333333333" d="M 187.5 433 L 188 435.5 L 187 435.5 L 187.5 433 Z " /><path fill="rgb(5,122,230)" stroke="rgb(5,122,230)" stroke-width="1" opacity="0.9333333333333333" d="M 361.5 433 L 362.5 435 L 361.5 433 Z " /><path fill="rgb(5,122,230)" stroke="rgb(5,122,230)" stroke-width="1" opacity="0.9333333333333333" d="M 697.5 433 L 698.5 435 L 697.5 433 Z " /><path fill="rgb(5,122,230)" stroke="rgb(5,122,230)" stroke-width="1" opacity="0.9333333333333333" d="M 739.5 433 L 740 436.5 L 739 436.5 L 739.5 433 Z " /><path fill="rgb(5,122,230)" stroke="rgb(5,122,230)" stroke-width="1" opacity="0.9333333333333333" d="M 519.5 434 Q 523.3 433.3 524 435.5 L 522.5 435 Q 518.5 435.8 519.5 434 Z " /><path fill="rgb(5,122,230)" stroke="rgb(5,122,230)" stroke-width="1" opacity="0.9333333333333333" d="M 751.5 434 L 752 439.5 L 751 439.5 L 751.5 434 Z " /><path fill="rgb(5,122,230)" stroke="rgb(5,122,230)" stroke-width="1" opacity="0.9333333333333333" d="M 194.5 436 L 196.5 439 L 194.5 436 Z " /><path fill="rgb(5,122,230)" stroke="rgb(5,122,230)" stroke-width="1" opacity="0.9333333333333333" d="M 632.5 436 L 633 438.5 L 632 438.5 L 632.5 436 Z " /><path fill="rgb(5,122,230)" stroke="rgb(5,122,230)" stroke-width="1" opacity="0.9333333333333333" d="M 640.5 436 L 642.5 439 L 640.5 436 Z " /><path fill="rgb(5,122,230)" stroke="rgb(5,122,230)" stroke-width="1" opacity="0.9333333333333333" d="M 807.5 436 L 808 438.5 L 807 438.5 L 807.5 436 Z " /><path fill="rgb(5,122,230)" stroke="rgb(5,122,230)" stroke-width="1" opacity="0.9333333333333333" d="M 906.5 436 L 907.5 438 L 906.5 436 Z " /><path fill="rgb(5,122,230)" stroke="rgb(5,122,230)" stroke-width="1" opacity="0.9333333333333333" d="M 774.5 437 L 775.5 439 L 774.5 437 Z " /><path fill="rgb(5,122,230)" stroke="rgb(5,122,230)" stroke-width="1" opacity="0.9333333333333333" d="M 186.5 438 L 185.5 440 L 186.5 438 Z " /><path fill="rgb(5,122,230)" stroke="rgb(5,122,230)" stroke-width="1" opacity="0.9333333333333333" d="M 738.5 438 L 737.5 440 L 738.5 438 Z " /><path fill="rgb(5,122,230)" stroke="rgb(5,122,230)" stroke-width="1" opacity="0.9333333333333333" d="M 840.5 438 L 841.5 440 L 840.5 438 Z " /><path fill="rgb(5,122,230)" stroke="rgb(5,122,230)" stroke-width="1" opacity="0.9333333333333333" d="M 880.5 438 L 881.5 440 L 880.5 438 Z " /><path fill="rgb(2,167,243)" stroke="rgb(2,167,243)" stroke-width="1" opacity="0.9647058823529412" d="M 487.5 22 L 514.5 22 Q 515.5 22 515 26.5 L 516 27.5 L 517 40.5 L 519.5 45 L 531.5 47 L 546.5 52 L 559 35 L 563.5 36 L 585 49.5 L 577 67.5 L 577 70.5 L 587 79.5 L 596.5 91 L 617.5 83 L 630 103.5 L 631 108.5 L 614 121.5 L 615 129 L 590.5 130 L 587 129 L 581 115 Q 578 116.3 579 112.5 L 578 110 L 576 110 Q 577.1 107.3 574.5 108 L 566.5 99 L 565 98.5 L 565.5 97 Q 561.5 97.5 561 94.5 Q 561.8 92.3 559.5 93 Q 552.9 85.8 543 83 L 542.5 81 L 540.5 81 L 519.5 73 L 517.5 73 Q 512 74.5 510.5 72 L 484.5 72 L 477.5 74 L 475.5 74 L 466.5 77 L 462.5 77 L 456.5 81 L 453.5 81 L 439.5 90 L 434.5 95 L 431 96 L 429.5 99 L 427 100.5 L 425.5 103 L 423 104.5 Q 421.2 111.8 415 114.5 L 407 130 L 402.5 129 L 382.5 129 L 381 127.5 L 383 125.5 Q 382.2 120.2 385 118.5 L 367 104.5 L 381.5 80 L 402.5 88 L 419 72.5 Q 418.3 70.3 420.5 71 L 424 67.5 L 423 66.5 L 417 52.5 L 416 46 L 440.5 33 L 454.5 51 L 461.5 48 L 483 44 L 485 26.5 L 487.5 22 Z " /><path fill="rgb(2,167,243)" stroke="rgb(2,167,243)" stroke-width="1" opacity="0.9647058823529412" d="M 517.5 123 L 518 137.5 L 507.5 146 L 506 143.5 L 506 131 L 517.5 123 Z " /><path fill="rgb(2,167,243)" stroke="rgb(2,167,243)" stroke-width="1" opacity="0.9647058823529412" d="M 556.5 126 L 557 139.5 L 540 149 Q 541 152 538 151 L 538 153.5 Q 535.5 155 537 160.5 L 537 162.5 L 538.5 168 L 555 158.5 L 555.5 157 L 557 159.5 L 555 165.5 L 555 167.5 L 554.5 173 L 554 171 Q 550.7 169.9 552 174 L 544.5 174 L 544 176 L 542.5 176 Q 541.3 178.3 540 175.5 L 539.5 173 L 530 173 L 530 165.5 L 529 164.5 L 529 148.5 L 528 145 L 556.5 126 Z " /><path fill="rgb(2,167,243)" stroke="rgb(2,167,243)" stroke-width="1" opacity="0.9647058823529412" d="M 493.5 141 L 495 141.5 L 495 154.5 L 487.5 161 L 485 161 L 482.5 165 L 480 165 Q 481.3 168 477.5 167 L 473 170.5 L 474 167.5 Q 474.8 164.9 471.5 166 L 470 169 Q 466.7 167.9 468 172 L 471 172.5 L 466.5 176 L 466 174.5 Q 468.3 173.3 465.5 172 Q 461.1 170.5 462 173.5 L 459.5 172 L 456 170.5 Q 458.3 169.3 455.5 168 L 452 166.5 Q 452.8 164.3 450.5 165 L 449.5 166 L 446.5 163 L 438 159 Q 436.9 156.3 439.5 157 L 441.5 155 L 445.5 155 Q 446.8 152 451 153 Q 449.8 156 453.5 155 L 457 157 Q 455.9 159.7 458.5 159 L 461.5 163 L 465.5 164 L 473 158.5 L 475.5 155 L 481 153 L 483.5 149 L 493.5 141 Z M 457 167 L 459 170 Q 461 171 460 169 L 457 167 Z " /><path fill="rgb(2,167,243)" stroke="rgb(2,167,243)" stroke-width="1" opacity="0.9647058823529412" d="M 380.5 144 L 384.5 145 L 401 145 L 399 159 L 355.5 159 L 355 158.5 L 355 151.5 L 357.5 149 L 369.5 149 Q 371.8 146 377 147 Q 375.8 144 379.5 145 L 380.5 144 Z " /><path fill="rgb(2,167,243)" stroke="rgb(2,167,243)" stroke-width="1" opacity="0.9647058823529412" d="M 595.5 144 Q 597.2 146.8 603.5 145 L 605.5 144 L 614.5 146 L 619 145 L 621 151 L 627.5 151 L 630.5 154 L 639.5 155 L 642 154 L 643 157.5 L 641.5 159 L 599.5 159 L 597 160 Q 598.2 154 595 151.5 L 595.5 144 Z " /><path fill="rgb(2,167,243)" stroke="rgb(2,167,243)" stroke-width="1" opacity="0.9647058823529412" d="M 516.5 152 L 517 168.5 L 515.5 168 Q 512.9 167.2 514 170.5 L 510.5 176 L 510 169 Q 507.3 167.9 508 170.5 L 507 170.5 L 507 159 L 509 159 L 509 157 L 511 157 Q 509.9 154.3 512.5 155 L 516.5 152 Z " /><path fill="rgb(2,167,243)" stroke="rgb(2,167,243)" stroke-width="1" opacity="0.9647058823529412" d="M 493.5 170 L 494 172.5 L 490.5 175 L 490 173.5 L 493.5 170 Z " /><path fill="rgb(2,167,243)" stroke="rgb(2,167,243)" stroke-width="1" opacity="0.9647058823529412" d="M 437.5 171 Q 440.5 172.5 437.5 174 L 437.5 171 Z " /><path fill="rgb(2,167,243)" stroke="rgb(2,167,243)" stroke-width="1" opacity="0.9647058823529412" d="M 355.5 177 L 396.5 177 L 399 179.5 L 399 189 L 381.5 189 L 379 187.5 L 381 184.5 L 374.5 180 L 358.5 178 L 356.5 179 L 355.5 177 Z " /><path fill="rgb(2,167,243)" stroke="rgb(2,167,243)" stroke-width="1" opacity="0.9647058823529412" d="M 598 177 L 641.5 177 L 643 178.5 L 642.5 180 L 632.5 180 L 630.5 181 L 628 180 L 628 184 L 620.5 184 Q 618 185.2 619 189 L 595 188.5 L 597 186.5 Q 596.1 179.7 598 177 Z " /><path fill="rgb(2,167,243)" stroke="rgb(2,167,243)" stroke-width="1" opacity="0.9647058823529412" d="M 379.5 193 L 390 193.5 L 379.5 194 L 379.5 193 Z " /><path fill="rgb(2,167,243)" stroke="rgb(2,167,243)" stroke-width="1" opacity="0.9647058823529412" d="M 384 205 L 399 205.5 L 386 206 L 384.5 212 L 384 205 Z " /><path fill="rgb(2,167,243)" stroke="rgb(2,167,243)" stroke-width="1" opacity="0.9647058823529412" d="M 402.5 205 L 405 206.5 L 404 208.5 L 406 209 L 409 215.5 L 407 216 L 404.5 220 L 404 216 Q 401 214.8 402 218.5 L 400 219.5 L 399.5 217 L 392.5 217 L 390 216 L 390 209.5 L 391.5 208 L 399.5 209 L 401.5 208 L 403 208.5 L 402.5 205 Z " /><path fill="rgb(2,167,243)" stroke="rgb(2,167,243)" stroke-width="1" opacity="0.9647058823529412" d="M 592.5 205 L 610.5 205 L 611 208 L 613 208 L 613 210.5 L 611.5 213 L 611 210 L 607 210 L 606.5 213 L 594.5 213 L 590.5 210 L 589 210.5 L 591.5 207 L 593 207.5 L 592.5 205 Z " /><path fill="rgb(2,167,243)" stroke="rgb(2,167,243)" stroke-width="1" opacity="0.9647058823529412" d="M 382.5 212 L 380.5 215 L 377 217.5 Q 378.1 220.8 375.5 220 L 372 222.5 Q 372.8 225.1 369.5 224 L 370 222.5 L 371.5 220 L 382.5 212 Z " /><path fill="rgb(2,167,243)" stroke="rgb(2,167,243)" stroke-width="1" opacity="0.9647058823529412" d="M 604 214 L 608 215.5 L 604 216 L 604 214 Z " /><path fill="rgb(2,167,243)" stroke="rgb(2,167,243)" stroke-width="1" opacity="0.9647058823529412" d="M 611.5 214 L 612.5 216 L 610 215.5 L 611.5 214 Z " /><path fill="rgb(2,167,243)" stroke="rgb(2,167,243)" stroke-width="1" opacity="0.9647058823529412" d="M 379.5 220 L 380 222 L 378 221.5 L 379.5 220 Z " /><path fill="rgb(2,167,243)" stroke="rgb(2,167,243)" stroke-width="1" opacity="0.9647058823529412" d="M 615.5 222 Q 618.1 221.3 617 224 L 614 223.5 L 615.5 222 Z " /><path fill="rgb(2,167,243)" stroke="rgb(2,167,243)" stroke-width="1" opacity="0.9647058823529412" d="M 406 223 L 411.5 223 L 412 224.5 L 410.5 224 Q 407.9 223.3 409 226 L 406 226 L 406 223 Z " /><path fill="rgb(2,167,243)" stroke="rgb(2,167,243)" stroke-width="1" opacity="0.9647058823529412" d="M 581 226 Q 585.1 224.7 584 228 Q 579.9 229.3 581 226 Z " /><path fill="rgb(2,167,243)" stroke="rgb(2,167,243)" stroke-width="1" opacity="0.9647058823529412" d="M 579.5 228 L 580 232 Q 577.3 233.1 578 230.5 L 579.5 228 Z " /><path fill="rgb(2,167,243)" stroke="rgb(2,167,243)" stroke-width="1" opacity="0.9647058823529412" d="M 71.5 269 Q 83 267 86 273.5 L 101 302.5 L 101 304.5 L 102.5 307 Q 105.1 306.2 104 309.5 Q 102.5 312.5 101 309.5 L 99.5 307 L 96 307 Q 97 304 94 305 L 95 307.5 L 94 311 L 92 311 L 92 306 L 89 306 L 88 309.5 Q 90.2 310.8 87.5 312 Q 84.7 310.8 87 309.5 Q 87.8 307.3 85.5 308 L 81 299 L 79 299 Q 80.1 296.3 77.5 297 L 74 299.5 L 77 300.5 L 75 301 L 74 308 L 72 308 L 72 312 L 70.5 312 L 69.5 309 Q 62.6 309.9 60 306.5 L 60 301 L 57.5 301 L 59 298.5 L 59 293.5 L 61 291.5 L 64 276.5 L 69.5 270 L 71.5 269 Z M 63 298 L 62 300 L 64 299 L 63 298 Z M 62 302 Q 60 307 64 306 Q 66 301 62 302 Z " /><path fill="rgb(2,167,243)" stroke="rgb(2,167,243)" stroke-width="1" opacity="0.9647058823529412" d="M 135.5 269 Q 147.3 267.2 150 274.5 L 153 282.5 Q 152.3 288.2 155 290.5 L 155 296.5 Q 157.8 297.2 157 301.5 L 156 305 L 159 306.5 L 157.5 309 L 148 308 Q 149.5 303.5 145 305 L 143.5 309 L 140 306.5 L 136.5 296 L 128.5 310 L 127 307 L 115.5 309 Q 112 308 113 302.5 L 117 297.5 L 127 276.5 L 131.5 271 L 135.5 269 Z " /><path fill="rgb(2,167,243)" stroke="rgb(2,167,243)" stroke-width="1" opacity="0.9647058823529412" d="M 219.5 269 Q 234.2 266.8 238 275.5 L 245 285.5 L 245 287.5 L 249 291.5 L 251 297 Q 254 295.8 253 299.5 Q 256.6 300.9 256 306.5 L 254 307.5 Q 254.7 304.9 252 306 L 252 312 L 250 312 L 250 307 L 248.5 307 L 246.5 309 L 240.5 310 L 239 309.5 L 238.5 311 L 235 306.5 L 236 304 L 231 303 L 229 297 Q 226 298.3 227 294.5 L 223 293 L 223 295 Q 220.3 293.9 221 296.5 L 209.5 311 L 207 309.5 L 208 307.5 L 203.5 307 L 203.5 309 L 196.5 308 L 194 309 Q 195 312 192 311 L 191 306.5 L 195 299 Q 197.7 300.1 197 297.5 L 213 273 L 219.5 269 Z M 248 298 Q 247 301 250 300 Q 251 297 248 298 Z M 252 303 Q 251 306 254 305 Q 255 302 252 303 Z " /><path fill="rgb(2,167,243)" stroke="rgb(2,167,243)" stroke-width="1" opacity="0.9647058823529412" d="M 626.5 269 Q 633.3 267.7 636.5 270 L 651 282 L 653.5 286 Q 655.8 285.3 655 287.5 L 663 293.5 L 667.5 299 Q 669.8 298.3 669 300.5 L 671 303.5 L 660 310 L 658.5 313 L 649 305.5 Q 649.8 303.3 647.5 304 L 642 300.5 Q 642.8 297.9 639.5 299 L 638 298.5 L 636.5 309 L 634.5 308 L 632.5 311 L 630.5 307 Q 625.3 305.8 624 308.5 L 623.5 311 L 620 309.5 L 623 308.5 L 620 307 L 620 298.5 L 619 297.5 L 619 279.5 Q 619.9 272.9 624.5 270 L 626.5 269 Z " /><path fill="rgb(2,167,243)" stroke="rgb(2,167,243)" stroke-width="1" opacity="0.9647058823529412" d="M 715.5 269 L 723.5 269 L 734 277.5 Q 733.3 279.8 735.5 279 L 759 300.5 L 760 305 L 762.5 304 L 767.5 308 L 770.5 307 L 770.5 308 L 764 309 Q 765 312 762 311 Q 763.3 308 759.5 309 L 754.5 308 L 752.5 309 L 750.5 308 L 745 309 Q 746.1 311.7 743.5 311 L 734 302.5 Q 734.8 298.8 732.5 298 L 732 299.5 L 732.5 301 L 727.5 298 L 723 308 L 720.5 309 L 720 307 L 716 307 Q 717 304 714 305 Q 715.3 308 711.5 307 L 709 308.5 L 709 306.5 L 709 284.5 L 708 279.5 Q 708.9 272.9 713.5 270 L 715.5 269 Z M 756 302 Q 755 305 758 304 Q 759 301 756 302 Z " /><path fill="rgb(2,167,243)" stroke="rgb(2,167,243)" stroke-width="1" opacity="0.9647058823529412" d="M 829.5 269 L 858.5 269 L 867.5 271 Q 880.2 274.3 887 283.5 Q 889.7 285.8 889 291.5 L 891 293.5 L 891 306.5 L 888 307.5 Q 888.8 309.8 886.5 309 L 880.5 307 L 878.5 308 Q 877.3 305.8 872.5 307 L 871.5 310 L 871 305.5 L 872 301.5 L 871 295 Q 868 296.3 869 292.5 L 865.5 289 L 860.5 287 L 836.5 286 L 835.5 287 L 826.5 287 L 817 293 L 815.5 308 L 815 305 Q 810.1 303.4 812 309 L 807.5 309 L 800.5 312 L 798 311 L 798 308 Q 801 309 800 306 L 797 305.5 L 797 291.5 Q 800 290.5 799 285.5 L 803.5 280 L 813.5 273 L 829.5 269 Z " /><path fill="rgb(2,167,243)" stroke="rgb(2,167,243)" stroke-width="1" opacity="0.9647058823529412" d="M 1021.5 269 Q 1036.2 266.8 1040 275.5 L 1049.5 291 Q 1052.1 290.2 1051 293.5 L 1056 302.5 L 1055 308 L 1052.5 307 L 1042 307 L 1041.5 309 L 1040 305 L 1037.5 304 Q 1036.3 306.3 1035 303.5 L 1036 301.5 L 1029 295.5 L 1027.5 293 L 1024 294.5 L 1022.5 297 L 1021 297 L 1021 301 L 1019 301 L 1019 303 Q 1016.3 301.9 1017 304.5 L 1015 305.5 L 1015.5 304 L 1013.5 303 Q 1011 304.2 1012 308 L 1014 308.5 L 1012 309.5 L 1011.5 308 L 994.5 308 L 995 306.5 Q 992.9 300.6 997.5 302 Q 995.9 300.3 999 298.5 L 1001 293.5 L 1016.5 272 L 1021.5 269 Z M 1006 304 Q 1005 307 1009 306 Q 1010 303 1006 304 Z " /><path fill="rgb(2,167,243)" stroke="rgb(2,167,243)" stroke-width="1" opacity="0.9647058823529412" d="M 270.5 270 L 345 270.5 L 332.5 287 L 309 287 L 309 302.5 L 307.5 311 L 306 307 Q 303.9 305.4 298.5 306 L 296.5 306 Q 294.3 306.8 295 304.5 L 293 298.5 Q 295.5 297 292 295.5 L 290.5 292 Q 287.5 292.9 289 288.5 L 287.5 287 L 259 287 L 260 283.5 L 270.5 270 Z " /><path fill="rgb(2,167,243)" stroke="rgb(2,167,243)" stroke-width="1" opacity="0.9647058823529412" d="M 357.5 270 L 432 270.5 L 418.5 287 L 396.5 287 L 395 288.5 L 394.5 306 L 393.5 304 L 390.5 308 L 379.5 308 L 378 309.5 Q 378.7 312.1 376 311 L 377 307.5 Q 373.4 299.4 375 287 L 345.5 287 L 345 285.5 L 357.5 270 Z " /><path fill="rgb(2,167,243)" stroke="rgb(2,167,243)" stroke-width="1" opacity="0.9647058823529412" d="M 587 270 L 608 270 L 608 285.5 L 607 290.5 L 602 297.5 L 601 309 L 592.5 309 L 592 307 L 590.5 307 Q 587.8 308.2 590 309.5 Q 590.7 312.1 588 311 L 588 304.5 L 587 303.5 L 587 270 Z " /><path fill="rgb(2,167,243)" stroke="rgb(2,167,243)" stroke-width="1" opacity="0.9647058823529412" d="M 678 270 L 697 270 L 697 309.5 L 694.5 311 L 694.5 309 L 690.5 308 L 688.5 309 L 686.5 308 L 682.5 309 L 682.5 308 L 684 307.5 L 680 307 L 679 300.5 L 680 298.5 L 679 297.5 L 678 270 Z " /><path fill="rgb(2,167,243)" stroke="rgb(2,167,243)" stroke-width="1" opacity="0.9647058823529412" d="M 767 270 L 786 270 L 786 294.5 L 785 295.5 L 785 304.5 L 783 309.5 L 785 310.5 L 778.5 311 L 775 309 L 775 305 L 768 305 L 768 300.5 L 767 299.5 L 767 270 Z " /><path fill="rgb(2,167,243)" stroke="rgb(2,167,243)" stroke-width="1" opacity="0.9647058823529412" d="M 887 270 L 912.5 270 L 913 271.5 L 935 304.5 Q 933.8 307.3 932.5 305 L 928.5 307 L 926 305.5 Q 926.9 308.5 922.5 307 L 916 308 Q 914.9 310.7 917.5 310 L 917.5 311 L 914 308.5 L 907 297 L 903 294.5 L 903 292.5 L 887 270 Z M 919 303 Q 918 308 922 306 Q 924 302 919 303 Z M 915 304 L 914 307 L 916 308 L 915 304 Z " /><path fill="rgb(2,167,243)" stroke="rgb(2,167,243)" stroke-width="1" opacity="0.9647058823529412" d="M 971.5 270 L 994.5 270 L 995 271.5 L 985 286 L 983 286 L 983 289 Q 980.3 287.9 981 290.5 Q 978.3 291.6 979 295 L 975 297.5 Q 975.7 300.1 973 299 L 973 301.5 Q 971.8 304.8 968 304 Q 969 307.8 966.5 309 L 960.5 307 L 958.5 308 L 956.5 307 L 951.5 310 L 946 308 L 944.5 311 L 944 309.5 L 951 300.5 L 951 297 L 953 297 L 953 295 Q 955.7 296.1 955 293.5 L 959 286 Q 962 287.3 961 283.5 L 971.5 270 Z M 950 306 L 949 308 L 954 308 L 950 306 Z M 965 307 L 965 308 L 967 308 L 965 307 Z " /><path fill="rgb(2,167,243)" stroke="rgb(2,167,243)" stroke-width="1" opacity="0.9647058823529412" d="M 672.5 304 L 674 308 L 670 308 L 670 306.5 L 672.5 304 Z " /><path fill="rgb(2,167,243)" stroke="rgb(2,167,243)" stroke-width="1" opacity="0.9647058823529412" d="M 1058.5 304 L 1062 309.5 L 1060.5 310 Q 1056.7 308.7 1058.5 304 Z " /><path fill="rgb(2,167,243)" stroke="rgb(2,167,243)" stroke-width="1" opacity="0.9647058823529412" d="M 254 309 L 257 310.5 Q 257.7 313.5 254 312 L 254 309 Z " /><path fill="rgb(2,167,243)" stroke="rgb(2,167,243)" stroke-width="1" opacity="0.9647058823529412" d="M 142 310 Q 145 309 144 312 Q 141 313 142 310 Z " /><path fill="rgb(2,167,243)" stroke="rgb(2,167,243)" stroke-width="1" opacity="0.9647058823529412" d="M 677.5 310 L 680 310.5 L 677.5 311 L 677.5 310 Z " /><path fill="rgb(2,167,243)" stroke="rgb(2,167,243)" stroke-width="1" opacity="0.9647058823529412" d="M 138.5 363 L 176.5 363 L 179 365.5 L 179 372 L 161.5 372 L 159.5 372 L 143.5 372 L 143 375 L 170.5 375 Q 171.6 377.8 175 377 L 177 381.5 L 175.5 381 Q 170 382.5 168.5 380 L 162.5 382 L 161.5 381 L 142.5 381 L 139.5 383 L 135 379.5 L 134 372.5 Q 136.3 371.3 135 366.5 L 138.5 363 Z " /><path fill="rgb(2,167,243)" stroke="rgb(2,167,243)" stroke-width="1" opacity="0.9647058823529412" d="M 258.5 363 L 285.5 363 L 292 367.5 L 295 373.5 L 295 378.5 L 292 379.5 L 290.5 384 Q 286 383 287 376.5 L 282.5 372 L 261.5 372 L 257 375 L 257 381 L 252 381 Q 253.5 377.2 250.5 378 L 249 374.5 L 249 372.5 L 254.5 365 L 258.5 363 Z " /><path fill="rgb(2,167,243)" stroke="rgb(2,167,243)" stroke-width="1" opacity="0.9647058823529412" d="M 366.5 363 L 374 363 L 374 371.5 L 373 372.5 L 373 385.5 L 371.5 387 L 370 384.5 L 370.5 383 L 367.5 384 L 365 381.5 L 365 364.5 L 366.5 363 Z " /><path fill="rgb(2,167,243)" stroke="rgb(2,167,243)" stroke-width="1" opacity="0.9647058823529412" d="M 476 363 L 485 363 L 485 377.5 L 484 382 L 481.5 381 L 475 383 L 475 365.5 L 476 363 Z " /><path fill="rgb(2,167,243)" stroke="rgb(2,167,243)" stroke-width="1" opacity="0.9647058823529412" d="M 511 363 L 518.5 363 L 520 364.5 Q 522.7 368.3 521 376.5 L 519.5 383 L 516.5 382 L 514.5 383 L 513 382.5 L 512.5 384 L 511 377.5 L 511 363 Z " /><path fill="rgb(2,167,243)" stroke="rgb(2,167,243)" stroke-width="1" opacity="0.9647058823529412" d="M 591 363 L 634.5 363 L 635 364.5 Q 637.2 365.8 636 370.5 L 634.5 372 L 618.5 372 L 617 373.5 Q 618.7 380.3 615.5 382 Q 612.9 382.8 614 379.5 Q 612.8 377 609 378 L 609 372 L 591.5 372 Q 588.8 370.8 590 365.5 L 591 363 Z " /><path fill="rgb(2,167,243)" stroke="rgb(2,167,243)" stroke-width="1" opacity="0.9647058823529412" d="M 706 363 L 715.5 363 L 717 364.5 L 717 380.5 L 716 383 Q 713 382 714 385 L 711.5 385 L 707 381.5 L 706 363 Z " /><path fill="rgb(2,167,243)" stroke="rgb(2,167,243)" stroke-width="1" opacity="0.9647058823529412" d="M 797.5 363 L 824.5 363 L 831 367.5 L 831 370 L 833 370.5 L 833 381.5 Q 831.8 384.3 830.5 382 L 828 380.5 Q 829.1 376.3 825 378 L 825 374.5 L 820.5 372 L 801.5 372 L 797 374.5 Q 797.5 380 794.5 382 L 792 381 Q 793 384 790 383 L 789.5 381 L 788.5 383 L 787 375.5 Q 790 374.5 789 369.5 L 793.5 365 L 797.5 363 Z " /><path fill="rgb(2,167,243)" stroke="rgb(2,167,243)" stroke-width="1" opacity="0.9647058823529412" d="M 906.5 363 L 914.5 363 L 928 374.5 L 931.5 379 Q 933.8 378.3 933 380.5 L 934 384.5 L 932.5 387 L 931 381 L 928.5 380 L 925 381.5 L 926 383.5 L 922.5 381 L 917.5 377 L 914.5 375 Q 911.3 376.9 913 383 L 910 383 Q 911.3 380 907.5 381 L 905 377.5 L 905 364.5 L 906.5 363 Z " /><path fill="rgb(2,167,243)" stroke="rgb(2,167,243)" stroke-width="1" opacity="0.9647058823529412" d="M 940 363 L 948.5 363 L 949 364.5 L 950 369.5 L 949 370.5 L 948.5 385 L 947.5 383 L 946 383.5 L 946 382 L 941 382 L 941 380 Q 945.1 381.3 944 378 L 941.5 379 Q 938.5 372.9 940 363 Z " /><path fill="rgb(2,167,243)" stroke="rgb(2,167,243)" stroke-width="1" opacity="0.9647058823529412" d="M 687.5 427 L 688 432.5 L 687 432.5 L 687.5 427 Z " /><path fill="rgb(2,167,243)" stroke="rgb(2,167,243)" stroke-width="1" opacity="0.9647058823529412" d="M 809.5 427 L 816 427.5 L 809.5 428 L 809.5 427 Z " /><path fill="rgb(2,167,243)" stroke="rgb(2,167,243)" stroke-width="1" opacity="0.9647058823529412" d="M 461.5 429 L 462 431.5 L 461 431.5 L 461.5 429 Z " /><path fill="rgb(241,241,241)" stroke="rgb(241,241,241)" stroke-width="1" opacity="1" d="M 495.5 77 L 516.5 79 L 535.5 85 Q 557.2 94.8 571 112.5 L 583.5 133 L 640.5 133 L 642 131.5 L 664 94 L 688.5 94 L 690 92.5 L 692.5 89 L 698.5 87 L 702.5 88 L 707 92.5 L 708 100.5 L 702.5 107 Q 692.8 108.8 690 103.5 L 688.5 101 L 669.5 101 L 667 103.5 L 644.5 140 L 593.5 140 L 586 141.5 L 588 145.5 Q 586.6 157.1 589 163 L 591.5 164 L 707 164 L 709.5 160 Q 712.2 157.2 718.5 158 L 724 161.5 Q 726.8 164.2 726 170.5 L 723 176 Q 720.4 178.7 713.5 178 L 708 174.5 L 706.5 172 L 591.5 172 L 591 172.5 L 591 180.5 L 588 192.5 L 642.5 193 L 663.5 207 L 702.5 207 L 706.5 202 L 715.5 201 L 721 205.5 L 722 213.5 L 720 218 Q 717 220.7 710.5 221 L 703 215.5 L 702.5 214 L 660.5 214 L 642.5 201 L 586.5 201 L 577 220.5 Q 565.2 233.2 558 250.5 L 553 270.5 L 553 282.5 L 549.5 288 L 546.5 289 L 457.5 289 L 447.5 287 L 443 283.5 L 442 265.5 L 437 248.5 L 431 236.5 L 417 217.5 L 410 201 L 355.5 201 L 336.5 214 L 294 214 L 289.5 220 L 283.5 221 L 277 218 Q 274.1 215.1 275 207.5 L 279.5 202 L 288.5 201 L 293 204.5 L 294.5 207 L 333.5 207 L 354.5 193 L 374.5 193 L 375.5 194 L 389.5 194 L 390.5 193 L 407 193 L 405 181.5 L 405 172 L 290.5 172 L 289 173.5 L 287.5 176 Q 284.8 178.8 278.5 178 L 273 174.5 Q 270.2 171.8 271 165.5 L 274.5 160 Q 277.2 157.2 283.5 158 L 289 161.5 L 290.5 164 L 404.5 164 Q 405.5 164 405 159.5 L 409 141 L 404.5 140 L 352.5 140 L 350 137.5 L 327.5 101 L 308.5 101 L 307 102.5 L 304.5 106 Q 301.3 108.3 294.5 107 Q 287.6 104.9 289 94.5 L 294.5 88 L 298.5 87 L 304.5 89 L 307 91.5 L 308.5 94 L 332.5 94 L 333 95.5 L 351 123.5 L 353.5 130 L 356 131.5 L 356.5 133 L 413 133 Q 420.8 113.1 436.5 100 Q 449.6 88.6 467.5 82 L 478.5 79 L 494.5 78 L 495.5 77 Z M 488 85 L 474 88 L 463 92 L 444 104 Q 432 113 424 127 L 415 148 L 412 164 L 412 178 L 416 198 L 424 215 Q 435 227 443 244 L 449 263 L 450 279 L 451 280 L 452 281 L 545 281 L 547 262 L 552 246 L 558 234 L 573 213 L 577 205 L 582 190 L 583 176 L 584 175 L 583 157 L 579 142 Q 573 126 563 115 Q 550 99 531 91 L 508 85 L 488 85 Z " /><path fill="rgb(241,241,241)" stroke="rgb(241,241,241)" stroke-width="1" opacity="1" d="M 167.5 423 L 186.5 423 L 187 426.5 L 185.5 428 L 173.5 428 L 171.5 427 L 170.5 429 L 184.5 429 L 187 431.5 Q 188.5 438.5 184.5 440 L 166.5 440 L 165 438.5 L 166.5 435 L 182 434.5 L 179.5 433 Q 178 435.5 172.5 434 L 170.5 434 L 165 431.5 Q 163.5 424.5 167.5 423 Z " /><path fill="rgb(241,241,241)" stroke="rgb(241,241,241)" stroke-width="1" opacity="1" d="M 198.5 423 L 212.5 423 L 216 426.5 L 217 434.5 L 212.5 440 L 198.5 440 L 194 435.5 Q 192 425 198.5 423 Z M 210 427 L 209 428 L 200 428 Q 197 429 198 434 L 200 435 L 212 435 L 213 431 L 212 428 L 210 427 Z " /><path fill="rgb(241,241,241)" stroke="rgb(241,241,241)" stroke-width="1" opacity="1" d="M 224 423 L 228 423 L 228 434.5 Q 229.3 437.3 230.5 435 L 243.5 435 L 244 438.5 L 242.5 440 L 224 440 L 224 423 Z " /><path fill="rgb(241,241,241)" stroke="rgb(241,241,241)" stroke-width="1" opacity="1" d="M 251 423 L 255 423 L 255 435 L 267.5 435 L 269 433.5 L 269 423 L 273 424.5 L 273 436.5 L 272 439 L 269.5 440 L 253.5 440 L 251 437.5 L 250 426.5 L 251 423 Z " /><path fill="rgb(241,241,241)" stroke="rgb(241,241,241)" stroke-width="1" opacity="1" d="M 284.5 423 L 300.5 423 L 302 424.5 L 300.5 428 L 289.5 428 L 287.5 427 L 284 429.5 Q 283 434 285.5 435 L 288.5 436 L 289.5 435 L 300.5 435 L 302 438.5 L 300.5 440 L 284.5 440 L 281 437.5 Q 278.7 434.3 280 427.5 L 282.5 424 L 284.5 423 Z " /><path fill="rgb(241,241,241)" stroke="rgb(241,241,241)" stroke-width="1" opacity="1" d="M 309 423 L 314 423.5 L 314 440 Q 310.2 441 309 438.5 L 309 423 Z " /><path fill="rgb(241,241,241)" stroke="rgb(241,241,241)" stroke-width="1" opacity="1" d="M 326.5 423 L 339.5 423 L 343 425.5 L 345 430.5 L 344 432.5 L 344 434.5 L 341.5 439 L 339.5 440 L 326.5 440 L 322 436.5 L 321 428.5 L 324.5 424 L 326.5 423 Z M 326 428 L 326 435 L 337 435 L 338 436 Q 341 435 340 430 L 339 428 L 326 428 Z " /><path fill="rgb(241,241,241)" stroke="rgb(241,241,241)" stroke-width="1" opacity="1" d="M 352.5 423 L 356.5 423 L 368.5 434 L 369 423 Q 372.8 422 374 424.5 L 374 438.5 L 372.5 440 L 368.5 440 L 356.5 429 L 356 440 Q 352.2 441 351 438.5 L 351 434.5 L 351 424.5 L 352.5 423 Z " /><path fill="rgb(241,241,241)" stroke="rgb(241,241,241)" stroke-width="1" opacity="1" d="M 382 423 L 400.5 423 L 402 424.5 L 401.5 427 L 387.5 427 Q 384.5 428.5 387.5 430 L 396.5 430 L 397 433 L 387.5 433 L 386 434.5 L 386.5 436 L 401.5 436 L 402 438.5 L 400.5 440 L 382 440 L 382 423 Z " /><path fill="rgb(241,241,241)" stroke="rgb(241,241,241)" stroke-width="1" opacity="1" d="M 411.5 423 L 429.5 423 L 431 424.5 L 429.5 428 L 416.5 428 L 415.5 427 L 413 427.5 L 413.5 429 L 427.5 429 L 430 430 L 431 436.5 L 428.5 440 L 409.5 440 L 409 438.5 L 408 436.5 L 409.5 435 L 426 434.5 L 412.5 434 L 409 431.5 L 408 428.5 L 409 424 L 411.5 423 Z " /><path fill="rgb(241,241,241)" stroke="rgb(241,241,241)" stroke-width="1" opacity="1" d="M 449.5 423 L 469.5 423 L 471 424.5 Q 472.1 427.8 469.5 427 L 464.5 428 Q 462.8 425.2 461 429.5 L 462 437.5 L 461 440 L 457 440 L 457 428.5 Q 455.8 425.8 454.5 428 Q 449.3 429.3 448 426.5 L 449.5 423 Z " /><path fill="rgb(241,241,241)" stroke="rgb(241,241,241)" stroke-width="1" opacity="1" d="M 477 423 Q 481.6 421.8 483 424.5 L 483 439.5 L 478 440 L 477 433.5 L 477 431.5 L 477 423 Z " /><path fill="rgb(241,241,241)" stroke="rgb(241,241,241)" stroke-width="1" opacity="1" d="M 505.5 423 L 518.5 423 L 523 426.5 L 524 431.5 L 523.5 434 Q 516.8 436.3 519 429.5 L 517.5 428 L 505 428 L 505 435 L 516.5 435 L 519.5 436 L 521.5 435 L 525 436 L 524.5 440 L 505.5 440 L 501 436.5 L 500 428.5 L 503.5 424 L 505.5 423 Z " /><path fill="rgb(241,241,241)" stroke="rgb(241,241,241)" stroke-width="1" opacity="1" d="M 532 423 L 536 423 L 536 434.5 Q 537.3 437.3 538.5 435 L 550 435 L 550 423.5 L 552.5 423 L 554 424.5 L 554 436.5 L 553 439 L 550.5 440 L 534.5 440 L 532 437.5 L 531 429.5 L 531 427.5 L 532 423 Z " /><path fill="rgb(241,241,241)" stroke="rgb(241,241,241)" stroke-width="1" opacity="1" d="M 562 423 L 580.5 423 L 582 424.5 L 581.5 427 L 567.5 427 Q 564.5 428.5 567.5 430 L 576.5 430 L 577 433 L 567.5 433 L 566 434.5 L 566.5 436 L 581.5 436 L 582 438.5 L 580.5 440 L 562 440 L 562 423 Z " /><path fill="rgb(241,241,241)" stroke="rgb(241,241,241)" stroke-width="1" opacity="1" d="M 599 423 L 620.5 423 L 621 428 L 612 428 L 612 440 L 608 440 L 608 428.5 L 605.5 428 L 603.5 427 L 600.5 428 Q 598 426.8 599 423 Z " /><path fill="rgb(241,241,241)" stroke="rgb(241,241,241)" stroke-width="1" opacity="1" d="M 629.5 423 L 645.5 423 L 649 425.5 L 650 431.5 L 646 435.5 L 649 438.5 L 648.5 440 L 643 440 L 640.5 436 L 632.5 436 L 632 440 L 628 440 L 628 424.5 L 629.5 423 Z M 632 428 L 632 431 L 644 431 L 645 430 L 645 428 L 632 428 Z " /><path fill="rgb(241,241,241)" stroke="rgb(241,241,241)" stroke-width="1" opacity="1" d="M 665.5 423 Q 672.5 421.5 672 424.5 L 681 439.5 L 676.5 440 L 675 437 L 662.5 437 L 662 438.5 Q 661 441 656.5 440 L 657 438.5 L 665.5 423 Z M 669 427 L 666 432 L 666 433 L 672 433 L 669 427 Z " /><path fill="rgb(241,241,241)" stroke="rgb(241,241,241)" stroke-width="1" opacity="1" d="M 688.5 423 L 692.5 423 L 704.5 434 L 705 423 Q 708.8 422 710 424.5 L 710 438.5 L 708.5 440 L 703.5 439 L 692.5 429 L 692 440 Q 688.2 441 687 438.5 L 688 436.5 L 688 434.5 L 687 424.5 L 688.5 423 Z " /><path fill="rgb(241,241,241)" stroke="rgb(241,241,241)" stroke-width="1" opacity="1" d="M 719.5 423 L 738.5 423 L 739 427 Q 734.1 429.1 724.5 428 L 722.5 428 L 721 428.5 L 736.5 429 L 739 431.5 Q 740.5 438.5 736.5 440 L 718.5 440 L 717 438.5 Q 715.2 432.4 722.5 435 L 724.5 436 Q 725.7 433.7 730.5 435 L 732.5 436 L 733.5 434 L 720.5 434 L 717 431.5 Q 715.5 424.5 719.5 423 Z " /><path fill="rgb(241,241,241)" stroke="rgb(241,241,241)" stroke-width="1" opacity="1" d="M 747 423 L 765.5 423 L 767 424.5 L 765.5 428 L 763.5 428 L 751 428.5 L 762 429 L 762 434 L 751 434 L 751 440 L 747 440 L 747 423 Z " /><path fill="rgb(241,241,241)" stroke="rgb(241,241,241)" stroke-width="1" opacity="1" d="M 777.5 423 L 791.5 423 L 795 426.5 L 796 434.5 L 791.5 440 L 777.5 440 L 773 435.5 Q 771 425 777.5 423 Z M 788 427 L 787 428 L 779 428 Q 776 429 777 434 L 779 435 L 791 435 L 792 431 L 791 428 L 788 427 Z " /><path fill="rgb(241,241,241)" stroke="rgb(241,241,241)" stroke-width="1" opacity="1" d="M 804.5 423 L 820.5 423 L 825 426.5 Q 826.2 434.3 821 435.5 L 824 440 Q 818.6 441.5 817 438.5 L 815.5 436 L 807.5 436 L 807 440 L 803 440 L 803 424.5 L 804.5 423 Z M 810 427 L 809 428 Q 806 427 807 431 L 819 431 L 820 430 Q 821 427 819 428 L 817 428 Q 815 426 810 427 Z " /><path fill="rgb(241,241,241)" stroke="rgb(241,241,241)" stroke-width="1" opacity="1" d="M 832 423 Q 836.6 421.8 838 424.5 L 843.5 434 Q 845.8 434.8 845 432.5 L 850 423 L 855 423.5 L 855 440 L 851 440 L 851 432.5 L 850 432.5 L 847 439 L 842.5 440 L 837.5 433 L 837 440 L 832 439.5 L 832 423 Z " /><path fill="rgb(241,241,241)" stroke="rgb(241,241,241)" stroke-width="1" opacity="1" d="M 871.5 423 Q 877.8 421.8 879 425.5 L 886 440 Q 880.9 441 879.5 437 L 868.5 437 L 867 440 L 862 440 L 862 438.5 L 871.5 423 Z M 874 428 L 871 432 L 872 433 L 877 433 L 876 430 L 874 428 Z " /><path fill="rgb(241,241,241)" stroke="rgb(241,241,241)" stroke-width="1" opacity="1" d="M 893 423 L 897.5 423 L 910.5 434 L 911 423 L 915 423.5 L 915 440 L 910.5 440 L 897 429 L 897 439.5 L 894.5 440 L 893 438.5 L 893 423 Z " /></svg>